<svg xmlns="http://www.w3.org/2000/svg" xmlns:xlink="http://www.w3.org/1999/xlink" width="450" zoomAndPan="magnify" viewBox="0 0 337.5 74.999997" height="100" preserveAspectRatio="xMidYMid meet" version="1.0"><defs><g/><clipPath id="0ba308be45"><path d="M 36 7 L 130.5 7 L 130.5 66.839844 L 36 66.839844 Z M 36 7 " clip-rule="nonzero"/></clipPath><clipPath id="7a3e3c368d"><path d="M 0 7 L 94 7 L 94 66.839844 L 0 66.839844 Z M 0 7 " clip-rule="nonzero"/></clipPath></defs><g clip-path="url(#0ba308be45)"><path fill="#545454" d="M 100.667969 7.007812 C 91.816406 6.84375 83.824219 10.515625 78.246094 16.460938 C 75.75 19.121094 76.53125 23.433594 79.765625 25.125 C 81.976562 26.28125 84.722656 25.878906 86.429688 24.066406 C 89.847656 20.429688 94.707031 18.160156 100.101562 18.160156 C 110.59375 18.160156 119.070312 26.753906 118.835938 37.265625 C 118.679688 44.28125 114.5 50.648438 108.160156 53.707031 C 98.625 58.308594 89.082031 52.261719 80.746094 47.847656 C 68.796875 41.519531 56.847656 35.191406 44.898438 28.863281 C 42.21875 27.445312 38.894531 28.46875 37.480469 31.148438 C 36.089844 33.792969 37.085938 37.058594 39.722656 38.480469 C 43.355469 40.445312 47.792969 43.023438 48.546875 43.421875 C 53.414062 45.964844 58.28125 48.507812 63.148438 51.054688 C 69.148438 54.1875 75.101562 57.421875 81.164062 60.433594 C 87.292969 63.480469 93.101562 66.675781 100.101562 66.675781 C 116.875 66.675781 130.429688 52.921875 130.023438 36.109375 C 129.644531 20.222656 116.605469 7.300781 100.667969 7.007812 " fill-opacity="1" fill-rule="nonzero"/></g><g clip-path="url(#7a3e3c368d)"><path fill="#f4f6fc" d="M 29.8125 66.671875 C 38.660156 66.835938 46.652344 63.167969 52.230469 57.21875 C 54.726562 54.558594 53.949219 50.246094 50.710938 48.554688 L 50.535156 48.460938 C 48.363281 47.324219 45.726562 47.832031 44.046875 49.613281 C 40.628906 53.25 35.769531 55.519531 30.378906 55.519531 C 19.886719 55.519531 11.410156 46.925781 11.640625 36.414062 C 11.796875 29.398438 15.980469 23.03125 22.320312 19.972656 C 31.855469 15.375 41.394531 21.417969 49.730469 25.832031 C 61.679688 32.160156 73.628906 38.488281 85.578125 44.816406 C 88.257812 46.234375 91.585938 45.210938 92.996094 42.53125 C 94.386719 39.886719 93.390625 36.621094 90.757812 35.199219 C 87.121094 33.234375 82.6875 30.65625 81.929688 30.257812 C 77.0625 27.714844 72.195312 25.171875 67.328125 22.625 C 61.328125 19.492188 55.378906 16.257812 49.3125 13.246094 C 43.1875 10.199219 37.378906 7.003906 30.378906 7.003906 C 13.601562 7.003906 0.0507812 20.757812 0.453125 37.570312 C 0.835938 53.457031 13.875 66.378906 29.8125 66.671875 " fill-opacity="1" fill-rule="nonzero"/></g><g fill="#ffffff" fill-opacity="1"><g transform="translate(130.644559, 39.81024)"><g><path d="M 18.1875 -6.6875 C 19.4375 -7.925781 20.0625 -9.625 20.0625 -11.78125 C 20.0625 -13.9375 19.4375 -15.628906 18.1875 -16.859375 C 16.945312 -18.085938 15.488281 -18.703125 13.8125 -18.703125 C 12.144531 -18.703125 10.691406 -18.09375 9.453125 -16.875 C 8.222656 -15.65625 7.609375 -13.96875 7.609375 -11.8125 C 7.609375 -9.664062 8.234375 -7.96875 9.484375 -6.71875 C 10.734375 -5.46875 12.1875 -4.84375 13.84375 -4.84375 C 15.5 -4.84375 16.945312 -5.457031 18.1875 -6.6875 Z M 4.6875 -3.078125 C 2.582031 -5.359375 1.53125 -8.269531 1.53125 -11.8125 C 1.53125 -15.363281 2.578125 -18.265625 4.671875 -20.515625 C 6.773438 -22.765625 9.441406 -23.890625 12.671875 -23.890625 C 15.898438 -23.890625 18.363281 -22.554688 20.0625 -19.890625 L 20.0625 -31.46875 L 26.015625 -31.46875 L 26.015625 0 L 20.0625 0 L 20.0625 -3.953125 C 18.28125 -1.085938 15.800781 0.34375 12.625 0.34375 C 9.445312 0.34375 6.800781 -0.796875 4.6875 -3.078125 Z M 4.6875 -3.078125 "/></g></g></g><g fill="#ffffff" fill-opacity="1"><g transform="translate(158.997873, 39.81024)"><g><path d="M 13.140625 0.34375 C 9.710938 0.34375 6.921875 -0.765625 4.765625 -2.984375 C 2.609375 -5.210938 1.53125 -8.15625 1.53125 -11.8125 C 1.53125 -15.46875 2.613281 -18.394531 4.78125 -20.59375 C 6.945312 -22.789062 9.75 -23.890625 13.1875 -23.890625 C 16.632812 -23.890625 19.460938 -22.816406 21.671875 -20.671875 C 23.890625 -18.535156 25 -15.679688 25 -12.109375 C 25 -11.296875 24.941406 -10.535156 24.828125 -9.828125 L 7.65625 -9.828125 C 7.789062 -8.296875 8.351562 -7.0625 9.34375 -6.125 C 10.34375 -5.1875 11.609375 -4.71875 13.140625 -4.71875 C 15.203125 -4.71875 16.734375 -5.566406 17.734375 -7.265625 L 24.1875 -7.265625 C 23.507812 -5.023438 22.191406 -3.195312 20.234375 -1.78125 C 18.273438 -0.363281 15.910156 0.34375 13.140625 0.34375 Z M 18.796875 -13.6875 C 18.710938 -15.25 18.132812 -16.492188 17.0625 -17.421875 C 16 -18.359375 14.71875 -18.828125 13.21875 -18.828125 C 11.71875 -18.828125 10.460938 -18.359375 9.453125 -17.421875 C 8.453125 -16.492188 7.851562 -15.25 7.65625 -13.6875 Z M 18.796875 -13.6875 "/></g></g></g><g fill="#ffffff" fill-opacity="1"><g transform="translate(184.673094, 39.81024)"><g><path d="M 0.296875 -23.546875 L 6.671875 -23.546875 L 12.75 -5.140625 L 18.796875 -23.546875 L 25.171875 -23.546875 L 16.5 0 L 8.96875 0 Z M 0.296875 -23.546875 "/></g></g></g><g fill="#ffffff" fill-opacity="1"><g transform="translate(209.285582, 39.81024)"><g><path d="M 1.875 -16.671875 C 1.875 -18.710938 2.738281 -20.425781 4.46875 -21.8125 C 6.195312 -23.195312 8.488281 -23.890625 11.34375 -23.890625 C 14.207031 -23.890625 16.503906 -23.203125 18.234375 -21.828125 C 19.960938 -20.453125 20.882812 -18.585938 21 -16.234375 L 14.875 -16.234375 C 14.707031 -18.222656 13.488281 -19.21875 11.21875 -19.21875 C 10.09375 -19.21875 9.21875 -18.988281 8.59375 -18.53125 C 7.96875 -18.082031 7.65625 -17.457031 7.65625 -16.65625 C 7.65625 -15.863281 8.117188 -15.238281 9.046875 -14.78125 C 9.984375 -14.332031 11.117188 -13.976562 12.453125 -13.71875 C 13.785156 -13.46875 15.109375 -13.148438 16.421875 -12.765625 C 17.742188 -12.390625 18.875 -11.710938 19.8125 -10.734375 C 20.75 -9.753906 21.21875 -8.457031 21.21875 -6.84375 C 21.21875 -4.71875 20.316406 -2.988281 18.515625 -1.65625 C 16.710938 -0.320312 14.414062 0.34375 11.625 0.34375 C 8.832031 0.34375 6.539062 -0.3125 4.75 -1.625 C 2.96875 -2.945312 1.992188 -4.84375 1.828125 -7.3125 L 7.953125 -7.3125 C 8.179688 -5.332031 9.441406 -4.34375 11.734375 -4.34375 C 12.835938 -4.34375 13.726562 -4.585938 14.40625 -5.078125 C 15.09375 -5.578125 15.4375 -6.226562 15.4375 -7.03125 C 15.4375 -7.84375 14.96875 -8.484375 14.03125 -8.953125 C 13.09375 -9.421875 11.957031 -9.78125 10.625 -10.03125 C 9.289062 -10.289062 7.960938 -10.601562 6.640625 -10.96875 C 5.328125 -11.332031 4.203125 -11.988281 3.265625 -12.9375 C 2.335938 -13.894531 1.875 -15.140625 1.875 -16.671875 Z M 1.875 -16.671875 "/></g></g></g><g fill="#ffffff" fill-opacity="1"><g transform="translate(231.560057, 39.81024)"><g><path d="M 9.53125 -0.421875 L 0.296875 -23.546875 L 7.015625 -23.546875 L 13.015625 -6.796875 L 19.34375 -23.546875 L 25.59375 -23.546875 L 10.890625 11.140625 L 4.640625 11.140625 Z M 9.53125 -0.421875 "/></g></g></g><g fill="#ffffff" fill-opacity="1"><g transform="translate(256.597633, 39.81024)"><g><path d="M 1.875 -16.671875 C 1.875 -18.710938 2.738281 -20.425781 4.46875 -21.8125 C 6.195312 -23.195312 8.488281 -23.890625 11.34375 -23.890625 C 14.207031 -23.890625 16.503906 -23.203125 18.234375 -21.828125 C 19.960938 -20.453125 20.882812 -18.585938 21 -16.234375 L 14.875 -16.234375 C 14.707031 -18.222656 13.488281 -19.21875 11.21875 -19.21875 C 10.09375 -19.21875 9.21875 -18.988281 8.59375 -18.53125 C 7.96875 -18.082031 7.65625 -17.457031 7.65625 -16.65625 C 7.65625 -15.863281 8.117188 -15.238281 9.046875 -14.78125 C 9.984375 -14.332031 11.117188 -13.976562 12.453125 -13.71875 C 13.785156 -13.46875 15.109375 -13.148438 16.421875 -12.765625 C 17.742188 -12.390625 18.875 -11.710938 19.8125 -10.734375 C 20.75 -9.753906 21.21875 -8.457031 21.21875 -6.84375 C 21.21875 -4.71875 20.316406 -2.988281 18.515625 -1.65625 C 16.710938 -0.320312 14.414062 0.34375 11.625 0.34375 C 8.832031 0.34375 6.539062 -0.3125 4.75 -1.625 C 2.96875 -2.945312 1.992188 -4.84375 1.828125 -7.3125 L 7.953125 -7.3125 C 8.179688 -5.332031 9.441406 -4.34375 11.734375 -4.34375 C 12.835938 -4.34375 13.726562 -4.585938 14.40625 -5.078125 C 15.09375 -5.578125 15.4375 -6.226562 15.4375 -7.03125 C 15.4375 -7.84375 14.96875 -8.484375 14.03125 -8.953125 C 13.09375 -9.421875 11.957031 -9.78125 10.625 -10.03125 C 9.289062 -10.289062 7.960938 -10.601562 6.640625 -10.96875 C 5.328125 -11.332031 4.203125 -11.988281 3.265625 -12.9375 C 2.335938 -13.894531 1.875 -15.140625 1.875 -16.671875 Z M 1.875 -16.671875 "/></g></g></g><g fill="#ffffff" fill-opacity="1"><g transform="translate(278.872115, 39.81024)"><g><path d="M 13.640625 -4.71875 C 15.316406 -4.71875 16.753906 -5.332031 17.953125 -6.5625 C 19.160156 -7.800781 19.765625 -9.546875 19.765625 -11.796875 C 19.765625 -14.046875 19.171875 -15.78125 17.984375 -17 C 16.796875 -18.21875 15.359375 -18.828125 13.671875 -18.828125 C 11.984375 -18.828125 10.554688 -18.21875 9.390625 -17 C 8.234375 -15.78125 7.65625 -14.035156 7.65625 -11.765625 C 7.65625 -9.503906 8.234375 -7.765625 9.390625 -6.546875 C 10.554688 -5.328125 11.972656 -4.71875 13.640625 -4.71875 Z M 5.015625 -3.015625 C 2.722656 -5.253906 1.578125 -8.1875 1.578125 -11.8125 C 1.578125 -15.445312 2.738281 -18.367188 5.0625 -20.578125 C 7.382812 -22.785156 10.265625 -23.890625 13.703125 -23.890625 C 17.148438 -23.890625 20.035156 -22.785156 22.359375 -20.578125 C 24.679688 -18.367188 25.84375 -15.445312 25.84375 -11.8125 C 25.84375 -8.1875 24.671875 -5.253906 22.328125 -3.015625 C 19.992188 -0.773438 17.097656 0.34375 13.640625 0.34375 C 10.179688 0.34375 7.304688 -0.773438 5.015625 -3.015625 Z M 5.015625 -3.015625 "/></g></g></g><g fill="#ffffff" fill-opacity="1"><g transform="translate(305.440044, 39.81024)"><g><path d="M 19.75 -6.71875 C 20.976562 -7.96875 21.59375 -9.664062 21.59375 -11.8125 C 21.59375 -13.96875 20.976562 -15.65625 19.75 -16.875 C 18.519531 -18.09375 17.066406 -18.703125 15.390625 -18.703125 C 13.710938 -18.703125 12.257812 -18.085938 11.03125 -16.859375 C 9.800781 -15.628906 9.1875 -13.9375 9.1875 -11.78125 C 9.1875 -9.625 9.800781 -7.925781 11.03125 -6.6875 C 12.257812 -5.457031 13.710938 -4.84375 15.390625 -4.84375 C 17.066406 -4.84375 18.519531 -5.46875 19.75 -6.71875 Z M 9.1875 -19.890625 C 10.851562 -22.554688 13.300781 -23.890625 16.53125 -23.890625 C 19.769531 -23.890625 22.4375 -22.765625 24.53125 -20.515625 C 26.625 -18.265625 27.671875 -15.359375 27.671875 -11.796875 C 27.671875 -8.242188 26.625 -5.332031 24.53125 -3.0625 C 22.4375 -0.789062 19.789062 0.34375 16.59375 0.34375 C 13.40625 0.34375 10.9375 -1.085938 9.1875 -3.953125 L 9.1875 11.21875 L 3.1875 11.21875 L 3.1875 -23.546875 L 9.1875 -23.546875 Z M 9.1875 -19.890625 "/></g></g></g><g fill="#ffffff" fill-opacity="1"><g transform="translate(133.906911, 64.382553)"><g><path d="M 1.15625 0 L 1.15625 -8.59375 L 2.3125 -8.59375 L 2.3125 0 Z M 1.15625 0 "/></g></g></g><g fill="#ffffff" fill-opacity="1"><g transform="translate(138.879887, 64.382553)"><g><path d="M 4.390625 -7.640625 L 4.390625 0 L 3.234375 0 L 3.234375 -7.640625 L 0.28125 -7.640625 L 0.28125 -8.59375 L 7.34375 -8.59375 L 7.34375 -7.640625 Z M 4.390625 -7.640625 "/></g></g></g><g fill="#ffffff" fill-opacity="1"><g transform="translate(148.013449, 64.382553)"><g/></g></g><g fill="#ffffff" fill-opacity="1"><g transform="translate(152.986425, 64.382553)"><g><path d="M 7.765625 -2.375 C 7.765625 -1.582031 7.453125 -0.96875 6.828125 -0.53125 C 6.210938 -0.09375 5.34375 0.125 4.21875 0.125 C 2.113281 0.125 0.894531 -0.601562 0.5625 -2.0625 L 1.703125 -2.28125 C 1.828125 -1.769531 2.097656 -1.390625 2.515625 -1.140625 C 2.941406 -0.898438 3.519531 -0.78125 4.25 -0.78125 C 5.007812 -0.78125 5.59375 -0.910156 6 -1.171875 C 6.40625 -1.429688 6.609375 -1.8125 6.609375 -2.3125 C 6.609375 -2.59375 6.539062 -2.820312 6.40625 -3 C 6.28125 -3.175781 6.101562 -3.316406 5.875 -3.421875 C 5.644531 -3.535156 5.367188 -3.628906 5.046875 -3.703125 C 4.722656 -3.785156 4.367188 -3.875 3.984375 -3.96875 C 3.296875 -4.113281 2.773438 -4.257812 2.421875 -4.40625 C 2.078125 -4.5625 1.800781 -4.734375 1.59375 -4.921875 C 1.394531 -5.109375 1.238281 -5.320312 1.125 -5.5625 C 1.019531 -5.8125 0.96875 -6.097656 0.96875 -6.421875 C 0.96875 -7.160156 1.25 -7.726562 1.8125 -8.125 C 2.375 -8.53125 3.179688 -8.734375 4.234375 -8.734375 C 5.210938 -8.734375 5.957031 -8.582031 6.46875 -8.28125 C 6.988281 -7.976562 7.351562 -7.46875 7.5625 -6.75 L 6.421875 -6.546875 C 6.285156 -7.003906 6.039062 -7.332031 5.6875 -7.53125 C 5.332031 -7.738281 4.84375 -7.84375 4.21875 -7.84375 C 3.53125 -7.84375 3.003906 -7.726562 2.640625 -7.5 C 2.285156 -7.28125 2.109375 -6.941406 2.109375 -6.484375 C 2.109375 -6.222656 2.175781 -6.003906 2.3125 -5.828125 C 2.457031 -5.660156 2.660156 -5.515625 2.921875 -5.390625 C 3.191406 -5.273438 3.71875 -5.128906 4.5 -4.953125 C 4.769531 -4.890625 5.035156 -4.828125 5.296875 -4.765625 C 5.554688 -4.703125 5.804688 -4.625 6.046875 -4.53125 C 6.285156 -4.445312 6.507812 -4.34375 6.71875 -4.21875 C 6.925781 -4.101562 7.109375 -3.960938 7.265625 -3.796875 C 7.421875 -3.628906 7.539062 -3.425781 7.625 -3.1875 C 7.71875 -2.957031 7.765625 -2.6875 7.765625 -2.375 Z M 7.765625 -2.375 "/></g></g></g><g fill="#ffffff" fill-opacity="1"><g transform="translate(162.821553, 64.382553)"><g><path d="M 1.03125 0 L 1.03125 -8.59375 L 7.546875 -8.59375 L 7.546875 -7.640625 L 2.1875 -7.640625 L 2.1875 -4.890625 L 7.1875 -4.890625 L 7.1875 -3.953125 L 2.1875 -3.953125 L 2.1875 -0.953125 L 7.796875 -0.953125 L 7.796875 0 Z M 1.03125 0 "/></g></g></g><g fill="#ffffff" fill-opacity="1"><g transform="translate(172.65668, 64.382553)"><g><path d="M 7.109375 0 L 4.875 -3.578125 L 2.1875 -3.578125 L 2.1875 0 L 1.03125 0 L 1.03125 -8.59375 L 5.078125 -8.59375 C 6.046875 -8.59375 6.789062 -8.375 7.3125 -7.9375 C 7.84375 -7.507812 8.109375 -6.910156 8.109375 -6.140625 C 8.109375 -5.503906 7.921875 -4.96875 7.546875 -4.53125 C 7.171875 -4.09375 6.65625 -3.816406 6 -3.703125 L 8.453125 0 Z M 6.9375 -6.125 C 6.9375 -6.625 6.765625 -7.003906 6.421875 -7.265625 C 6.085938 -7.535156 5.597656 -7.671875 4.953125 -7.671875 L 2.1875 -7.671875 L 2.1875 -4.5 L 5 -4.5 C 5.613281 -4.5 6.085938 -4.640625 6.421875 -4.921875 C 6.765625 -5.210938 6.9375 -5.613281 6.9375 -6.125 Z M 6.9375 -6.125 "/></g></g></g><g fill="#ffffff" fill-opacity="1"><g transform="translate(183.181172, 64.382553)"><g><path d="M 4.765625 0 L 3.5625 0 L 0.0625 -8.59375 L 1.28125 -8.59375 L 3.65625 -2.546875 L 4.171875 -1.03125 L 4.6875 -2.546875 L 7.0625 -8.59375 L 8.28125 -8.59375 Z M 4.765625 0 "/></g></g></g><g fill="#ffffff" fill-opacity="1"><g transform="translate(193.0163, 64.382553)"><g><path d="M 1.15625 0 L 1.15625 -8.59375 L 2.3125 -8.59375 L 2.3125 0 Z M 1.15625 0 "/></g></g></g><g fill="#ffffff" fill-opacity="1"><g transform="translate(197.989276, 64.382553)"><g><path d="M 4.828125 -7.78125 C 3.878906 -7.78125 3.140625 -7.472656 2.609375 -6.859375 C 2.078125 -6.242188 1.8125 -5.40625 1.8125 -4.34375 C 1.8125 -3.289062 2.085938 -2.441406 2.640625 -1.796875 C 3.191406 -1.160156 3.941406 -0.84375 4.890625 -0.84375 C 6.085938 -0.84375 6.988281 -1.4375 7.59375 -2.625 L 8.546875 -2.15625 C 8.191406 -1.40625 7.691406 -0.835938 7.046875 -0.453125 C 6.410156 -0.0664062 5.671875 0.125 4.828125 0.125 C 3.960938 0.125 3.210938 -0.0507812 2.578125 -0.40625 C 1.941406 -0.769531 1.457031 -1.285156 1.125 -1.953125 C 0.800781 -2.628906 0.640625 -3.425781 0.640625 -4.34375 C 0.640625 -5.707031 1.007812 -6.78125 1.75 -7.5625 C 2.488281 -8.34375 3.515625 -8.734375 4.828125 -8.734375 C 5.734375 -8.734375 6.492188 -8.550781 7.109375 -8.1875 C 7.722656 -7.832031 8.175781 -7.300781 8.46875 -6.59375 L 7.359375 -6.234375 C 7.160156 -6.734375 6.84375 -7.113281 6.40625 -7.375 C 5.96875 -7.644531 5.441406 -7.78125 4.828125 -7.78125 Z M 4.828125 -7.78125 "/></g></g></g><g fill="#ffffff" fill-opacity="1"><g transform="translate(208.513767, 64.382553)"><g><path d="M 1.03125 0 L 1.03125 -8.59375 L 7.546875 -8.59375 L 7.546875 -7.640625 L 2.1875 -7.640625 L 2.1875 -4.890625 L 7.1875 -4.890625 L 7.1875 -3.953125 L 2.1875 -3.953125 L 2.1875 -0.953125 L 7.796875 -0.953125 L 7.796875 0 Z M 1.03125 0 "/></g></g></g><g fill="#ffffff" fill-opacity="1"><g transform="translate(218.348895, 64.382553)"><g><path d="M 7.765625 -2.375 C 7.765625 -1.582031 7.453125 -0.96875 6.828125 -0.53125 C 6.210938 -0.09375 5.34375 0.125 4.21875 0.125 C 2.113281 0.125 0.894531 -0.601562 0.5625 -2.0625 L 1.703125 -2.28125 C 1.828125 -1.769531 2.097656 -1.390625 2.515625 -1.140625 C 2.941406 -0.898438 3.519531 -0.78125 4.25 -0.78125 C 5.007812 -0.78125 5.59375 -0.910156 6 -1.171875 C 6.40625 -1.429688 6.609375 -1.8125 6.609375 -2.3125 C 6.609375 -2.59375 6.539062 -2.820312 6.40625 -3 C 6.28125 -3.175781 6.101562 -3.316406 5.875 -3.421875 C 5.644531 -3.535156 5.367188 -3.628906 5.046875 -3.703125 C 4.722656 -3.785156 4.367188 -3.875 3.984375 -3.96875 C 3.296875 -4.113281 2.773438 -4.257812 2.421875 -4.40625 C 2.078125 -4.5625 1.800781 -4.734375 1.59375 -4.921875 C 1.394531 -5.109375 1.238281 -5.320312 1.125 -5.5625 C 1.019531 -5.8125 0.96875 -6.097656 0.96875 -6.421875 C 0.96875 -7.160156 1.25 -7.726562 1.8125 -8.125 C 2.375 -8.53125 3.179688 -8.734375 4.234375 -8.734375 C 5.210938 -8.734375 5.957031 -8.582031 6.46875 -8.28125 C 6.988281 -7.976562 7.351562 -7.46875 7.5625 -6.75 L 6.421875 -6.546875 C 6.285156 -7.003906 6.039062 -7.332031 5.6875 -7.53125 C 5.332031 -7.738281 4.84375 -7.84375 4.21875 -7.84375 C 3.53125 -7.84375 3.003906 -7.726562 2.640625 -7.5 C 2.285156 -7.28125 2.109375 -6.941406 2.109375 -6.484375 C 2.109375 -6.222656 2.175781 -6.003906 2.3125 -5.828125 C 2.457031 -5.660156 2.660156 -5.515625 2.921875 -5.390625 C 3.191406 -5.273438 3.71875 -5.128906 4.5 -4.953125 C 4.769531 -4.890625 5.035156 -4.828125 5.296875 -4.765625 C 5.554688 -4.703125 5.804688 -4.625 6.046875 -4.53125 C 6.285156 -4.445312 6.507812 -4.34375 6.71875 -4.21875 C 6.925781 -4.101562 7.109375 -3.960938 7.265625 -3.796875 C 7.421875 -3.628906 7.539062 -3.425781 7.625 -3.1875 C 7.71875 -2.957031 7.765625 -2.6875 7.765625 -2.375 Z M 7.765625 -2.375 "/></g></g></g><g fill="#ffffff" fill-opacity="1"><g transform="translate(228.184022, 64.382553)"><g/></g></g><g fill="#ffffff" fill-opacity="1"><g transform="translate(233.156998, 64.382553)"><g><path d="M 4.828125 -7.78125 C 3.878906 -7.78125 3.140625 -7.472656 2.609375 -6.859375 C 2.078125 -6.242188 1.8125 -5.40625 1.8125 -4.34375 C 1.8125 -3.289062 2.085938 -2.441406 2.640625 -1.796875 C 3.191406 -1.160156 3.941406 -0.84375 4.890625 -0.84375 C 6.085938 -0.84375 6.988281 -1.4375 7.59375 -2.625 L 8.546875 -2.15625 C 8.191406 -1.40625 7.691406 -0.835938 7.046875 -0.453125 C 6.410156 -0.0664062 5.671875 0.125 4.828125 0.125 C 3.960938 0.125 3.210938 -0.0507812 2.578125 -0.40625 C 1.941406 -0.769531 1.457031 -1.285156 1.125 -1.953125 C 0.800781 -2.628906 0.640625 -3.425781 0.640625 -4.34375 C 0.640625 -5.707031 1.007812 -6.78125 1.75 -7.5625 C 2.488281 -8.34375 3.515625 -8.734375 4.828125 -8.734375 C 5.734375 -8.734375 6.492188 -8.550781 7.109375 -8.1875 C 7.722656 -7.832031 8.175781 -7.300781 8.46875 -6.59375 L 7.359375 -6.234375 C 7.160156 -6.734375 6.84375 -7.113281 6.40625 -7.375 C 5.96875 -7.644531 5.441406 -7.78125 4.828125 -7.78125 Z M 4.828125 -7.78125 "/></g></g></g><g fill="#ffffff" fill-opacity="1"><g transform="translate(243.68149, 64.382553)"><g><path d="M 9.125 -4.34375 C 9.125 -3.4375 8.953125 -2.644531 8.609375 -1.96875 C 8.265625 -1.300781 7.769531 -0.785156 7.125 -0.421875 C 6.488281 -0.0546875 5.734375 0.125 4.859375 0.125 C 3.972656 0.125 3.207031 -0.0507812 2.5625 -0.40625 C 1.925781 -0.769531 1.4375 -1.289062 1.09375 -1.96875 C 0.757812 -2.644531 0.59375 -3.4375 0.59375 -4.34375 C 0.59375 -5.71875 0.96875 -6.789062 1.71875 -7.5625 C 2.46875 -8.34375 3.515625 -8.734375 4.859375 -8.734375 C 5.734375 -8.734375 6.492188 -8.554688 7.140625 -8.203125 C 7.785156 -7.859375 8.273438 -7.351562 8.609375 -6.6875 C 8.953125 -6.019531 9.125 -5.238281 9.125 -4.34375 Z M 7.9375 -4.34375 C 7.9375 -5.40625 7.664062 -6.242188 7.125 -6.859375 C 6.59375 -7.472656 5.835938 -7.78125 4.859375 -7.78125 C 3.878906 -7.78125 3.117188 -7.476562 2.578125 -6.875 C 2.046875 -6.269531 1.78125 -5.425781 1.78125 -4.34375 C 1.78125 -3.257812 2.050781 -2.398438 2.59375 -1.765625 C 3.132812 -1.140625 3.890625 -0.828125 4.859375 -0.828125 C 5.847656 -0.828125 6.609375 -1.128906 7.140625 -1.734375 C 7.671875 -2.347656 7.9375 -3.21875 7.9375 -4.34375 Z M 7.9375 -4.34375 "/></g></g></g><g fill="#ffffff" fill-opacity="1"><g transform="translate(254.901446, 64.382553)"><g><path d="M 6.609375 0 L 2 -7.328125 L 2.03125 -6.734375 L 2.0625 -5.71875 L 2.0625 0 L 1.03125 0 L 1.03125 -8.59375 L 2.375 -8.59375 L 7.03125 -1.234375 C 6.976562 -2.023438 6.953125 -2.597656 6.953125 -2.953125 L 6.953125 -8.59375 L 8.015625 -8.59375 L 8.015625 0 Z M 6.609375 0 "/></g></g></g><g fill="#ffffff" fill-opacity="1"><g transform="translate(265.425937, 64.382553)"><g><path d="M 7.765625 -2.375 C 7.765625 -1.582031 7.453125 -0.96875 6.828125 -0.53125 C 6.210938 -0.09375 5.34375 0.125 4.21875 0.125 C 2.113281 0.125 0.894531 -0.601562 0.5625 -2.0625 L 1.703125 -2.28125 C 1.828125 -1.769531 2.097656 -1.390625 2.515625 -1.140625 C 2.941406 -0.898438 3.519531 -0.78125 4.25 -0.78125 C 5.007812 -0.78125 5.59375 -0.910156 6 -1.171875 C 6.40625 -1.429688 6.609375 -1.8125 6.609375 -2.3125 C 6.609375 -2.59375 6.539062 -2.820312 6.40625 -3 C 6.28125 -3.175781 6.101562 -3.316406 5.875 -3.421875 C 5.644531 -3.535156 5.367188 -3.628906 5.046875 -3.703125 C 4.722656 -3.785156 4.367188 -3.875 3.984375 -3.96875 C 3.296875 -4.113281 2.773438 -4.257812 2.421875 -4.40625 C 2.078125 -4.5625 1.800781 -4.734375 1.59375 -4.921875 C 1.394531 -5.109375 1.238281 -5.320312 1.125 -5.5625 C 1.019531 -5.8125 0.96875 -6.097656 0.96875 -6.421875 C 0.96875 -7.160156 1.25 -7.726562 1.8125 -8.125 C 2.375 -8.53125 3.179688 -8.734375 4.234375 -8.734375 C 5.210938 -8.734375 5.957031 -8.582031 6.46875 -8.28125 C 6.988281 -7.976562 7.351562 -7.46875 7.5625 -6.75 L 6.421875 -6.546875 C 6.285156 -7.003906 6.039062 -7.332031 5.6875 -7.53125 C 5.332031 -7.738281 4.84375 -7.84375 4.21875 -7.84375 C 3.53125 -7.84375 3.003906 -7.726562 2.640625 -7.5 C 2.285156 -7.28125 2.109375 -6.941406 2.109375 -6.484375 C 2.109375 -6.222656 2.175781 -6.003906 2.3125 -5.828125 C 2.457031 -5.660156 2.660156 -5.515625 2.921875 -5.390625 C 3.191406 -5.273438 3.71875 -5.128906 4.5 -4.953125 C 4.769531 -4.890625 5.035156 -4.828125 5.296875 -4.765625 C 5.554688 -4.703125 5.804688 -4.625 6.046875 -4.53125 C 6.285156 -4.445312 6.507812 -4.34375 6.71875 -4.21875 C 6.925781 -4.101562 7.109375 -3.960938 7.265625 -3.796875 C 7.421875 -3.628906 7.539062 -3.425781 7.625 -3.1875 C 7.71875 -2.957031 7.765625 -2.6875 7.765625 -2.375 Z M 7.765625 -2.375 "/></g></g></g><g fill="#ffffff" fill-opacity="1"><g transform="translate(275.261065, 64.382553)"><g><path d="M 4.46875 0.125 C 3.757812 0.125 3.140625 0 2.609375 -0.25 C 2.085938 -0.507812 1.679688 -0.882812 1.390625 -1.375 C 1.109375 -1.863281 0.96875 -2.445312 0.96875 -3.125 L 0.96875 -8.59375 L 2.125 -8.59375 L 2.125 -3.21875 C 2.125 -2.4375 2.320312 -1.84375 2.71875 -1.4375 C 3.125 -1.03125 3.703125 -0.828125 4.453125 -0.828125 C 5.222656 -0.828125 5.820312 -1.035156 6.25 -1.453125 C 6.6875 -1.878906 6.90625 -2.492188 6.90625 -3.296875 L 6.90625 -8.59375 L 8.0625 -8.59375 L 8.0625 -3.234375 C 8.0625 -2.535156 7.910156 -1.929688 7.609375 -1.421875 C 7.316406 -0.921875 6.898438 -0.535156 6.359375 -0.265625 C 5.828125 -0.00390625 5.195312 0.125 4.46875 0.125 Z M 4.46875 0.125 "/></g></g></g><g fill="#ffffff" fill-opacity="1"><g transform="translate(285.785556, 64.382553)"><g><path d="M 1.03125 0 L 1.03125 -8.59375 L 2.1875 -8.59375 L 2.1875 -0.953125 L 6.53125 -0.953125 L 6.53125 0 Z M 1.03125 0 "/></g></g></g><g fill="#ffffff" fill-opacity="1"><g transform="translate(294.235855, 64.382553)"><g><path d="M 4.390625 -7.640625 L 4.390625 0 L 3.234375 0 L 3.234375 -7.640625 L 0.28125 -7.640625 L 0.28125 -8.59375 L 7.34375 -8.59375 L 7.34375 -7.640625 Z M 4.390625 -7.640625 "/></g></g></g><g fill="#ffffff" fill-opacity="1"><g transform="translate(303.369418, 64.382553)"><g><path d="M 7.125 0 L 6.140625 -2.515625 L 2.21875 -2.515625 L 1.234375 0 L 0.03125 0 L 3.53125 -8.59375 L 4.859375 -8.59375 L 8.3125 0 Z M 4.1875 -7.71875 L 4.125 -7.546875 C 4.019531 -7.210938 3.867188 -6.78125 3.671875 -6.25 L 2.578125 -3.421875 L 5.796875 -3.421875 L 4.6875 -6.265625 C 4.570312 -6.546875 4.457031 -6.863281 4.34375 -7.21875 Z M 4.1875 -7.71875 "/></g></g></g><g fill="#ffffff" fill-opacity="1"><g transform="translate(313.204545, 64.382553)"><g><path d="M 6.609375 0 L 2 -7.328125 L 2.03125 -6.734375 L 2.0625 -5.71875 L 2.0625 0 L 1.03125 0 L 1.03125 -8.59375 L 2.375 -8.59375 L 7.03125 -1.234375 C 6.976562 -2.023438 6.953125 -2.597656 6.953125 -2.953125 L 6.953125 -8.59375 L 8.015625 -8.59375 L 8.015625 0 Z M 6.609375 0 "/></g></g></g><g fill="#ffffff" fill-opacity="1"><g transform="translate(323.729037, 64.382553)"><g><path d="M 4.390625 -7.640625 L 4.390625 0 L 3.234375 0 L 3.234375 -7.640625 L 0.28125 -7.640625 L 0.28125 -8.59375 L 7.34375 -8.59375 L 7.34375 -7.640625 Z M 4.390625 -7.640625 "/></g></g></g></svg>