<svg xmlns="http://www.w3.org/2000/svg" xmlns:xlink="http://www.w3.org/1999/xlink" width="450" zoomAndPan="magnify" viewBox="0 0 337.5 74.999997" height="100" preserveAspectRatio="xMidYMid meet" version="1.0"><defs><g/><clipPath id="03ec2d66c0"><path d="M 36 7 L 130.5 7 L 130.5 66.839844 L 36 66.839844 Z M 36 7 " clip-rule="nonzero"/></clipPath><clipPath id="741bb29ce4"><path d="M 0 7 L 94 7 L 94 66.839844 L 0 66.839844 Z M 0 7 " clip-rule="nonzero"/></clipPath></defs><g fill="#545454" fill-opacity="1"><g transform="translate(130.325531, 41.864126)"><g><path d="M 18.203125 -6.6875 C 19.453125 -7.925781 20.078125 -9.625 20.078125 -11.78125 C 20.078125 -13.9375 19.453125 -15.628906 18.203125 -16.859375 C 16.953125 -18.097656 15.488281 -18.71875 13.8125 -18.71875 C 12.144531 -18.71875 10.691406 -18.109375 9.453125 -16.890625 C 8.222656 -15.671875 7.609375 -13.984375 7.609375 -11.828125 C 7.609375 -9.671875 8.234375 -7.96875 9.484375 -6.71875 C 10.734375 -5.46875 12.1875 -4.84375 13.84375 -4.84375 C 15.5 -4.84375 16.953125 -5.457031 18.203125 -6.6875 Z M 4.703125 -3.078125 C 2.585938 -5.359375 1.53125 -8.269531 1.53125 -11.8125 C 1.53125 -15.363281 2.578125 -18.265625 4.671875 -20.515625 C 6.773438 -22.773438 9.441406 -23.90625 12.671875 -23.90625 C 15.898438 -23.90625 18.367188 -22.570312 20.078125 -19.90625 L 20.078125 -31.46875 L 26.03125 -31.46875 L 26.03125 0 L 20.078125 0 L 20.078125 -3.953125 C 18.285156 -1.085938 15.800781 0.34375 12.625 0.34375 C 9.457031 0.34375 6.816406 -0.796875 4.703125 -3.078125 Z M 4.703125 -3.078125 "/></g></g></g><g fill="#545454" fill-opacity="1"><g transform="translate(158.683224, 41.864126)"><g><path d="M 13.140625 0.34375 C 9.710938 0.34375 6.921875 -0.769531 4.765625 -3 C 2.609375 -5.226562 1.53125 -8.171875 1.53125 -11.828125 C 1.53125 -15.484375 2.613281 -18.410156 4.78125 -20.609375 C 6.945312 -22.804688 9.753906 -23.90625 13.203125 -23.90625 C 16.648438 -23.90625 19.476562 -22.832031 21.6875 -20.6875 C 23.90625 -18.550781 25.015625 -15.695312 25.015625 -12.125 C 25.015625 -11.300781 24.957031 -10.535156 24.84375 -9.828125 L 7.65625 -9.828125 C 7.800781 -8.296875 8.367188 -7.0625 9.359375 -6.125 C 10.347656 -5.1875 11.609375 -4.71875 13.140625 -4.71875 C 15.210938 -4.71875 16.742188 -5.566406 17.734375 -7.265625 L 24.203125 -7.265625 C 23.515625 -5.023438 22.191406 -3.195312 20.234375 -1.78125 C 18.285156 -0.363281 15.921875 0.34375 13.140625 0.34375 Z M 18.796875 -13.6875 C 18.710938 -15.25 18.140625 -16.5 17.078125 -17.4375 C 16.015625 -18.375 14.726562 -18.84375 13.21875 -18.84375 C 11.71875 -18.84375 10.460938 -18.375 9.453125 -17.4375 C 8.453125 -16.5 7.851562 -15.25 7.65625 -13.6875 Z M 18.796875 -13.6875 "/></g></g></g><g fill="#545454" fill-opacity="1"><g transform="translate(184.362427, 41.864126)"><g><path d="M 0.296875 -23.5625 L 6.671875 -23.5625 L 12.765625 -5.140625 L 18.796875 -23.5625 L 25.171875 -23.5625 L 16.5 0 L 8.96875 0 Z M 0.296875 -23.5625 "/></g></g></g><g fill="#545454" fill-opacity="1"><g transform="translate(208.978739, 41.864126)"><g><path d="M 1.875 -16.671875 C 1.875 -18.710938 2.738281 -20.425781 4.46875 -21.8125 C 6.195312 -23.207031 8.492188 -23.90625 11.359375 -23.90625 C 14.222656 -23.90625 16.519531 -23.21875 18.25 -21.84375 C 19.976562 -20.46875 20.898438 -18.601562 21.015625 -16.25 L 14.890625 -16.25 C 14.710938 -18.226562 13.492188 -19.21875 11.234375 -19.21875 C 10.097656 -19.21875 9.21875 -18.988281 8.59375 -18.53125 C 7.96875 -18.082031 7.65625 -17.460938 7.65625 -16.671875 C 7.65625 -15.878906 8.125 -15.253906 9.0625 -14.796875 C 10 -14.347656 11.128906 -13.992188 12.453125 -13.734375 C 13.785156 -13.484375 15.113281 -13.164062 16.4375 -12.78125 C 17.757812 -12.394531 18.882812 -11.710938 19.8125 -10.734375 C 20.75 -9.753906 21.21875 -8.457031 21.21875 -6.84375 C 21.21875 -4.71875 20.316406 -2.988281 18.515625 -1.65625 C 16.722656 -0.320312 14.425781 0.34375 11.625 0.34375 C 8.832031 0.34375 6.539062 -0.3125 4.75 -1.625 C 2.96875 -2.945312 1.992188 -4.84375 1.828125 -7.3125 L 7.953125 -7.3125 C 8.179688 -5.332031 9.441406 -4.34375 11.734375 -4.34375 C 12.835938 -4.34375 13.726562 -4.585938 14.40625 -5.078125 C 15.09375 -5.578125 15.4375 -6.226562 15.4375 -7.03125 C 15.4375 -7.84375 14.96875 -8.484375 14.03125 -8.953125 C 13.09375 -9.421875 11.957031 -9.78125 10.625 -10.03125 C 9.300781 -10.289062 7.976562 -10.601562 6.65625 -10.96875 C 5.332031 -11.34375 4.203125 -12.003906 3.265625 -12.953125 C 2.335938 -13.898438 1.875 -15.140625 1.875 -16.671875 Z M 1.875 -16.671875 "/></g></g></g><g fill="#545454" fill-opacity="1"><g transform="translate(231.256687, 41.864126)"><g><path d="M 9.53125 -0.421875 L 0.296875 -23.5625 L 7.015625 -23.5625 L 13.015625 -6.8125 L 19.359375 -23.5625 L 25.609375 -23.5625 L 10.890625 11.140625 L 4.640625 11.140625 Z M 9.53125 -0.421875 "/></g></g></g><g fill="#545454" fill-opacity="1"><g transform="translate(256.298154, 41.864126)"><g><path d="M 1.875 -16.671875 C 1.875 -18.710938 2.738281 -20.425781 4.46875 -21.8125 C 6.195312 -23.207031 8.492188 -23.90625 11.359375 -23.90625 C 14.222656 -23.90625 16.519531 -23.21875 18.25 -21.84375 C 19.976562 -20.46875 20.898438 -18.601562 21.015625 -16.25 L 14.890625 -16.25 C 14.710938 -18.226562 13.492188 -19.21875 11.234375 -19.21875 C 10.097656 -19.21875 9.21875 -18.988281 8.59375 -18.53125 C 7.96875 -18.082031 7.65625 -17.460938 7.65625 -16.671875 C 7.65625 -15.878906 8.125 -15.253906 9.0625 -14.796875 C 10 -14.347656 11.128906 -13.992188 12.453125 -13.734375 C 13.785156 -13.484375 15.113281 -13.164062 16.4375 -12.78125 C 17.757812 -12.394531 18.882812 -11.710938 19.8125 -10.734375 C 20.75 -9.753906 21.21875 -8.457031 21.21875 -6.84375 C 21.21875 -4.71875 20.316406 -2.988281 18.515625 -1.65625 C 16.722656 -0.320312 14.425781 0.34375 11.625 0.34375 C 8.832031 0.34375 6.539062 -0.3125 4.75 -1.625 C 2.96875 -2.945312 1.992188 -4.84375 1.828125 -7.3125 L 7.953125 -7.3125 C 8.179688 -5.332031 9.441406 -4.34375 11.734375 -4.34375 C 12.835938 -4.34375 13.726562 -4.585938 14.40625 -5.078125 C 15.09375 -5.578125 15.4375 -6.226562 15.4375 -7.03125 C 15.4375 -7.84375 14.96875 -8.484375 14.03125 -8.953125 C 13.09375 -9.421875 11.957031 -9.78125 10.625 -10.03125 C 9.300781 -10.289062 7.976562 -10.601562 6.65625 -10.96875 C 5.332031 -11.34375 4.203125 -12.003906 3.265625 -12.953125 C 2.335938 -13.898438 1.875 -15.140625 1.875 -16.671875 Z M 1.875 -16.671875 "/></g></g></g><g fill="#545454" fill-opacity="1"><g transform="translate(278.576102, 41.864126)"><g><path d="M 13.640625 -4.71875 C 15.316406 -4.71875 16.757812 -5.332031 17.96875 -6.5625 C 19.175781 -7.800781 19.78125 -9.546875 19.78125 -11.796875 C 19.78125 -14.054688 19.179688 -15.796875 17.984375 -17.015625 C 16.796875 -18.234375 15.359375 -18.84375 13.671875 -18.84375 C 11.984375 -18.84375 10.554688 -18.234375 9.390625 -17.015625 C 8.234375 -15.796875 7.65625 -14.050781 7.65625 -11.78125 C 7.65625 -9.507812 8.234375 -7.765625 9.390625 -6.546875 C 10.554688 -5.328125 11.972656 -4.71875 13.640625 -4.71875 Z M 5.015625 -3.015625 C 2.722656 -5.253906 1.578125 -8.1875 1.578125 -11.8125 C 1.578125 -15.445312 2.738281 -18.367188 5.0625 -20.578125 C 7.382812 -22.796875 10.269531 -23.90625 13.71875 -23.90625 C 17.164062 -23.90625 20.050781 -22.796875 22.375 -20.578125 C 24.695312 -18.367188 25.859375 -15.445312 25.859375 -11.8125 C 25.859375 -8.1875 24.6875 -5.253906 22.34375 -3.015625 C 20.007812 -0.773438 17.113281 0.34375 13.65625 0.34375 C 10.195312 0.34375 7.316406 -0.773438 5.015625 -3.015625 Z M 5.015625 -3.015625 "/></g></g></g><g fill="#545454" fill-opacity="1"><g transform="translate(305.148124, 41.864126)"><g><path d="M 19.75 -6.71875 C 20.988281 -7.96875 21.609375 -9.671875 21.609375 -11.828125 C 21.609375 -13.984375 20.988281 -15.671875 19.75 -16.890625 C 18.519531 -18.109375 17.066406 -18.71875 15.390625 -18.71875 C 13.722656 -18.71875 12.269531 -18.097656 11.03125 -16.859375 C 9.800781 -15.628906 9.1875 -13.9375 9.1875 -11.78125 C 9.1875 -9.625 9.800781 -7.925781 11.03125 -6.6875 C 12.269531 -5.457031 13.722656 -4.84375 15.390625 -4.84375 C 17.066406 -4.84375 18.519531 -5.46875 19.75 -6.71875 Z M 9.1875 -19.90625 C 10.863281 -22.570312 13.316406 -23.90625 16.546875 -23.90625 C 19.773438 -23.90625 22.4375 -22.773438 24.53125 -20.515625 C 26.632812 -18.265625 27.6875 -15.359375 27.6875 -11.796875 C 27.6875 -8.242188 26.632812 -5.332031 24.53125 -3.0625 C 22.4375 -0.789062 19.796875 0.34375 16.609375 0.34375 C 13.421875 0.34375 10.945312 -1.085938 9.1875 -3.953125 L 9.1875 11.234375 L 3.1875 11.234375 L 3.1875 -23.5625 L 9.1875 -23.5625 Z M 9.1875 -19.90625 "/></g></g></g><g fill="#545454" fill-opacity="1"><g transform="translate(133.551738, 66.159422)"><g><path d="M 1.15625 0 L 1.15625 -8.609375 L 2.328125 -8.609375 L 2.328125 0 Z M 1.15625 0 "/></g></g></g><g fill="#545454" fill-opacity="1"><g transform="translate(138.527487, 66.159422)"><g><path d="M 4.40625 -7.65625 L 4.40625 0 L 3.234375 0 L 3.234375 -7.65625 L 0.28125 -7.65625 L 0.28125 -8.609375 L 7.359375 -8.609375 L 7.359375 -7.65625 Z M 4.40625 -7.65625 "/></g></g></g><g fill="#545454" fill-opacity="1"><g transform="translate(147.667134, 66.159422)"><g/></g></g><g fill="#545454" fill-opacity="1"><g transform="translate(152.642883, 66.159422)"><g><path d="M 7.765625 -2.375 C 7.765625 -1.582031 7.453125 -0.96875 6.828125 -0.53125 C 6.210938 -0.09375 5.34375 0.125 4.21875 0.125 C 2.113281 0.125 0.894531 -0.601562 0.5625 -2.0625 L 1.703125 -2.296875 C 1.828125 -1.773438 2.101562 -1.390625 2.53125 -1.140625 C 2.957031 -0.898438 3.535156 -0.78125 4.265625 -0.78125 C 5.015625 -0.78125 5.59375 -0.910156 6 -1.171875 C 6.414062 -1.429688 6.625 -1.8125 6.625 -2.3125 C 6.625 -2.59375 6.554688 -2.820312 6.421875 -3 C 6.296875 -3.175781 6.113281 -3.320312 5.875 -3.4375 C 5.644531 -3.550781 5.367188 -3.644531 5.046875 -3.71875 C 4.734375 -3.800781 4.378906 -3.882812 3.984375 -3.96875 C 3.304688 -4.125 2.789062 -4.273438 2.4375 -4.421875 C 2.082031 -4.578125 1.800781 -4.742188 1.59375 -4.921875 C 1.394531 -5.109375 1.238281 -5.328125 1.125 -5.578125 C 1.019531 -5.828125 0.96875 -6.113281 0.96875 -6.4375 C 0.96875 -7.175781 1.25 -7.742188 1.8125 -8.140625 C 2.382812 -8.535156 3.191406 -8.734375 4.234375 -8.734375 C 5.210938 -8.734375 5.960938 -8.582031 6.484375 -8.28125 C 7.003906 -7.988281 7.367188 -7.484375 7.578125 -6.765625 L 6.421875 -6.5625 C 6.296875 -7.007812 6.054688 -7.335938 5.703125 -7.546875 C 5.347656 -7.753906 4.859375 -7.859375 4.234375 -7.859375 C 3.546875 -7.859375 3.019531 -7.742188 2.65625 -7.515625 C 2.289062 -7.285156 2.109375 -6.945312 2.109375 -6.5 C 2.109375 -6.226562 2.175781 -6.003906 2.3125 -5.828125 C 2.457031 -5.660156 2.660156 -5.515625 2.921875 -5.390625 C 3.191406 -5.273438 3.722656 -5.128906 4.515625 -4.953125 C 4.773438 -4.890625 5.035156 -4.828125 5.296875 -4.765625 C 5.566406 -4.703125 5.820312 -4.625 6.0625 -4.53125 C 6.300781 -4.445312 6.523438 -4.347656 6.734375 -4.234375 C 6.941406 -4.117188 7.125 -3.972656 7.28125 -3.796875 C 7.4375 -3.628906 7.554688 -3.425781 7.640625 -3.1875 C 7.722656 -2.957031 7.765625 -2.6875 7.765625 -2.375 Z M 7.765625 -2.375 "/></g></g></g><g fill="#545454" fill-opacity="1"><g transform="translate(162.484648, 66.159422)"><g><path d="M 1.03125 0 L 1.03125 -8.609375 L 7.5625 -8.609375 L 7.5625 -7.65625 L 2.1875 -7.65625 L 2.1875 -4.890625 L 7.1875 -4.890625 L 7.1875 -3.953125 L 2.1875 -3.953125 L 2.1875 -0.953125 L 7.8125 -0.953125 L 7.8125 0 Z M 1.03125 0 "/></g></g></g><g fill="#545454" fill-opacity="1"><g transform="translate(172.326411, 66.159422)"><g><path d="M 7.109375 0 L 4.875 -3.578125 L 2.1875 -3.578125 L 2.1875 0 L 1.03125 0 L 1.03125 -8.609375 L 5.078125 -8.609375 C 6.046875 -8.609375 6.789062 -8.390625 7.3125 -7.953125 C 7.84375 -7.523438 8.109375 -6.921875 8.109375 -6.140625 C 8.109375 -5.503906 7.921875 -4.96875 7.546875 -4.53125 C 7.179688 -4.09375 6.671875 -3.816406 6.015625 -3.703125 L 8.453125 0 Z M 6.9375 -6.140625 C 6.9375 -6.640625 6.765625 -7.019531 6.421875 -7.28125 C 6.085938 -7.539062 5.601562 -7.671875 4.96875 -7.671875 L 2.1875 -7.671875 L 2.1875 -4.5 L 5.015625 -4.5 C 5.628906 -4.5 6.101562 -4.640625 6.4375 -4.921875 C 6.769531 -5.210938 6.9375 -5.617188 6.9375 -6.140625 Z M 6.9375 -6.140625 "/></g></g></g><g fill="#545454" fill-opacity="1"><g transform="translate(182.858093, 66.159422)"><g><path d="M 4.78125 0 L 3.5625 0 L 0.0625 -8.609375 L 1.28125 -8.609375 L 3.671875 -2.546875 L 4.1875 -1.03125 L 4.6875 -2.546875 L 7.0625 -8.609375 L 8.296875 -8.609375 Z M 4.78125 0 "/></g></g></g><g fill="#545454" fill-opacity="1"><g transform="translate(192.699856, 66.159422)"><g><path d="M 1.15625 0 L 1.15625 -8.609375 L 2.328125 -8.609375 L 2.328125 0 Z M 1.15625 0 "/></g></g></g><g fill="#545454" fill-opacity="1"><g transform="translate(197.675604, 66.159422)"><g><path d="M 4.84375 -7.78125 C 3.882812 -7.78125 3.140625 -7.472656 2.609375 -6.859375 C 2.085938 -6.253906 1.828125 -5.414062 1.828125 -4.34375 C 1.828125 -3.289062 2.101562 -2.441406 2.65625 -1.796875 C 3.207031 -1.160156 3.953125 -0.84375 4.890625 -0.84375 C 6.097656 -0.84375 7.003906 -1.4375 7.609375 -2.625 L 8.5625 -2.15625 C 8.207031 -1.40625 7.707031 -0.835938 7.0625 -0.453125 C 6.425781 -0.0664062 5.679688 0.125 4.828125 0.125 C 3.960938 0.125 3.210938 -0.0507812 2.578125 -0.40625 C 1.941406 -0.769531 1.457031 -1.285156 1.125 -1.953125 C 0.800781 -2.628906 0.640625 -3.425781 0.640625 -4.34375 C 0.640625 -5.71875 1.007812 -6.789062 1.75 -7.5625 C 2.488281 -8.34375 3.515625 -8.734375 4.828125 -8.734375 C 5.742188 -8.734375 6.507812 -8.550781 7.125 -8.1875 C 7.738281 -7.832031 8.191406 -7.304688 8.484375 -6.609375 L 7.375 -6.234375 C 7.175781 -6.734375 6.851562 -7.113281 6.40625 -7.375 C 5.96875 -7.644531 5.445312 -7.78125 4.84375 -7.78125 Z M 4.84375 -7.78125 "/></g></g></g><g fill="#545454" fill-opacity="1"><g transform="translate(208.207285, 66.159422)"><g><path d="M 1.03125 0 L 1.03125 -8.609375 L 7.5625 -8.609375 L 7.5625 -7.65625 L 2.1875 -7.65625 L 2.1875 -4.890625 L 7.1875 -4.890625 L 7.1875 -3.953125 L 2.1875 -3.953125 L 2.1875 -0.953125 L 7.8125 -0.953125 L 7.8125 0 Z M 1.03125 0 "/></g></g></g><g fill="#545454" fill-opacity="1"><g transform="translate(218.049049, 66.159422)"><g><path d="M 7.765625 -2.375 C 7.765625 -1.582031 7.453125 -0.96875 6.828125 -0.53125 C 6.210938 -0.09375 5.34375 0.125 4.21875 0.125 C 2.113281 0.125 0.894531 -0.601562 0.5625 -2.0625 L 1.703125 -2.296875 C 1.828125 -1.773438 2.101562 -1.390625 2.53125 -1.140625 C 2.957031 -0.898438 3.535156 -0.78125 4.265625 -0.78125 C 5.015625 -0.78125 5.59375 -0.910156 6 -1.171875 C 6.414062 -1.429688 6.625 -1.8125 6.625 -2.3125 C 6.625 -2.59375 6.554688 -2.820312 6.421875 -3 C 6.296875 -3.175781 6.113281 -3.320312 5.875 -3.4375 C 5.644531 -3.550781 5.367188 -3.644531 5.046875 -3.71875 C 4.734375 -3.800781 4.378906 -3.882812 3.984375 -3.96875 C 3.304688 -4.125 2.789062 -4.273438 2.4375 -4.421875 C 2.082031 -4.578125 1.800781 -4.742188 1.59375 -4.921875 C 1.394531 -5.109375 1.238281 -5.328125 1.125 -5.578125 C 1.019531 -5.828125 0.96875 -6.113281 0.96875 -6.4375 C 0.96875 -7.175781 1.25 -7.742188 1.8125 -8.140625 C 2.382812 -8.535156 3.191406 -8.734375 4.234375 -8.734375 C 5.210938 -8.734375 5.960938 -8.582031 6.484375 -8.28125 C 7.003906 -7.988281 7.367188 -7.484375 7.578125 -6.765625 L 6.421875 -6.5625 C 6.296875 -7.007812 6.054688 -7.335938 5.703125 -7.546875 C 5.347656 -7.753906 4.859375 -7.859375 4.234375 -7.859375 C 3.546875 -7.859375 3.019531 -7.742188 2.65625 -7.515625 C 2.289062 -7.285156 2.109375 -6.945312 2.109375 -6.5 C 2.109375 -6.226562 2.175781 -6.003906 2.3125 -5.828125 C 2.457031 -5.660156 2.660156 -5.515625 2.921875 -5.390625 C 3.191406 -5.273438 3.722656 -5.128906 4.515625 -4.953125 C 4.773438 -4.890625 5.035156 -4.828125 5.296875 -4.765625 C 5.566406 -4.703125 5.820312 -4.625 6.0625 -4.53125 C 6.300781 -4.445312 6.523438 -4.347656 6.734375 -4.234375 C 6.941406 -4.117188 7.125 -3.972656 7.28125 -3.796875 C 7.4375 -3.628906 7.554688 -3.425781 7.640625 -3.1875 C 7.722656 -2.957031 7.765625 -2.6875 7.765625 -2.375 Z M 7.765625 -2.375 "/></g></g></g><g fill="#545454" fill-opacity="1"><g transform="translate(227.890812, 66.159422)"><g/></g></g><g fill="#545454" fill-opacity="1"><g transform="translate(232.866565, 66.159422)"><g><path d="M 4.84375 -7.78125 C 3.882812 -7.78125 3.140625 -7.472656 2.609375 -6.859375 C 2.085938 -6.253906 1.828125 -5.414062 1.828125 -4.34375 C 1.828125 -3.289062 2.101562 -2.441406 2.65625 -1.796875 C 3.207031 -1.160156 3.953125 -0.84375 4.890625 -0.84375 C 6.097656 -0.84375 7.003906 -1.4375 7.609375 -2.625 L 8.5625 -2.15625 C 8.207031 -1.40625 7.707031 -0.835938 7.0625 -0.453125 C 6.425781 -0.0664062 5.679688 0.125 4.828125 0.125 C 3.960938 0.125 3.210938 -0.0507812 2.578125 -0.40625 C 1.941406 -0.769531 1.457031 -1.285156 1.125 -1.953125 C 0.800781 -2.628906 0.640625 -3.425781 0.640625 -4.34375 C 0.640625 -5.71875 1.007812 -6.789062 1.75 -7.5625 C 2.488281 -8.34375 3.515625 -8.734375 4.828125 -8.734375 C 5.742188 -8.734375 6.507812 -8.550781 7.125 -8.1875 C 7.738281 -7.832031 8.191406 -7.304688 8.484375 -6.609375 L 7.375 -6.234375 C 7.175781 -6.734375 6.851562 -7.113281 6.40625 -7.375 C 5.96875 -7.644531 5.445312 -7.78125 4.84375 -7.78125 Z M 4.84375 -7.78125 "/></g></g></g><g fill="#545454" fill-opacity="1"><g transform="translate(243.398253, 66.159422)"><g><path d="M 9.140625 -4.34375 C 9.140625 -3.445312 8.96875 -2.660156 8.625 -1.984375 C 8.28125 -1.304688 7.785156 -0.785156 7.140625 -0.421875 C 6.492188 -0.0546875 5.734375 0.125 4.859375 0.125 C 3.972656 0.125 3.207031 -0.0507812 2.5625 -0.40625 C 1.925781 -0.769531 1.4375 -1.289062 1.09375 -1.96875 C 0.757812 -2.644531 0.59375 -3.4375 0.59375 -4.34375 C 0.59375 -5.71875 0.96875 -6.789062 1.71875 -7.5625 C 2.476562 -8.34375 3.53125 -8.734375 4.875 -8.734375 C 5.75 -8.734375 6.503906 -8.554688 7.140625 -8.203125 C 7.785156 -7.859375 8.28125 -7.351562 8.625 -6.6875 C 8.96875 -6.03125 9.140625 -5.25 9.140625 -4.34375 Z M 7.9375 -4.34375 C 7.9375 -5.414062 7.671875 -6.253906 7.140625 -6.859375 C 6.609375 -7.472656 5.851562 -7.78125 4.875 -7.78125 C 3.882812 -7.78125 3.117188 -7.476562 2.578125 -6.875 C 2.046875 -6.28125 1.78125 -5.4375 1.78125 -4.34375 C 1.78125 -3.257812 2.050781 -2.398438 2.59375 -1.765625 C 3.132812 -1.140625 3.890625 -0.828125 4.859375 -0.828125 C 5.847656 -0.828125 6.609375 -1.132812 7.140625 -1.75 C 7.671875 -2.363281 7.9375 -3.226562 7.9375 -4.34375 Z M 7.9375 -4.34375 "/></g></g></g><g fill="#545454" fill-opacity="1"><g transform="translate(254.625958, 66.159422)"><g><path d="M 6.609375 0 L 2 -7.328125 L 2.03125 -6.734375 L 2.0625 -5.71875 L 2.0625 0 L 1.03125 0 L 1.03125 -8.609375 L 2.390625 -8.609375 L 7.046875 -1.234375 C 6.992188 -2.023438 6.96875 -2.601562 6.96875 -2.96875 L 6.96875 -8.609375 L 8.015625 -8.609375 L 8.015625 0 Z M 6.609375 0 "/></g></g></g><g fill="#545454" fill-opacity="1"><g transform="translate(265.157646, 66.159422)"><g><path d="M 7.765625 -2.375 C 7.765625 -1.582031 7.453125 -0.96875 6.828125 -0.53125 C 6.210938 -0.09375 5.34375 0.125 4.21875 0.125 C 2.113281 0.125 0.894531 -0.601562 0.5625 -2.0625 L 1.703125 -2.296875 C 1.828125 -1.773438 2.101562 -1.390625 2.53125 -1.140625 C 2.957031 -0.898438 3.535156 -0.78125 4.265625 -0.78125 C 5.015625 -0.78125 5.59375 -0.910156 6 -1.171875 C 6.414062 -1.429688 6.625 -1.8125 6.625 -2.3125 C 6.625 -2.59375 6.554688 -2.820312 6.421875 -3 C 6.296875 -3.175781 6.113281 -3.320312 5.875 -3.4375 C 5.644531 -3.550781 5.367188 -3.644531 5.046875 -3.71875 C 4.734375 -3.800781 4.378906 -3.882812 3.984375 -3.96875 C 3.304688 -4.125 2.789062 -4.273438 2.4375 -4.421875 C 2.082031 -4.578125 1.800781 -4.742188 1.59375 -4.921875 C 1.394531 -5.109375 1.238281 -5.328125 1.125 -5.578125 C 1.019531 -5.828125 0.96875 -6.113281 0.96875 -6.4375 C 0.96875 -7.175781 1.25 -7.742188 1.8125 -8.140625 C 2.382812 -8.535156 3.191406 -8.734375 4.234375 -8.734375 C 5.210938 -8.734375 5.960938 -8.582031 6.484375 -8.28125 C 7.003906 -7.988281 7.367188 -7.484375 7.578125 -6.765625 L 6.421875 -6.5625 C 6.296875 -7.007812 6.054688 -7.335938 5.703125 -7.546875 C 5.347656 -7.753906 4.859375 -7.859375 4.234375 -7.859375 C 3.546875 -7.859375 3.019531 -7.742188 2.65625 -7.515625 C 2.289062 -7.285156 2.109375 -6.945312 2.109375 -6.5 C 2.109375 -6.226562 2.175781 -6.003906 2.3125 -5.828125 C 2.457031 -5.660156 2.660156 -5.515625 2.921875 -5.390625 C 3.191406 -5.273438 3.722656 -5.128906 4.515625 -4.953125 C 4.773438 -4.890625 5.035156 -4.828125 5.296875 -4.765625 C 5.566406 -4.703125 5.820312 -4.625 6.0625 -4.53125 C 6.300781 -4.445312 6.523438 -4.347656 6.734375 -4.234375 C 6.941406 -4.117188 7.125 -3.972656 7.28125 -3.796875 C 7.4375 -3.628906 7.554688 -3.425781 7.640625 -3.1875 C 7.722656 -2.957031 7.765625 -2.6875 7.765625 -2.375 Z M 7.765625 -2.375 "/></g></g></g><g fill="#545454" fill-opacity="1"><g transform="translate(274.999415, 66.159422)"><g><path d="M 4.46875 0.125 C 3.757812 0.125 3.140625 0 2.609375 -0.25 C 2.085938 -0.507812 1.679688 -0.882812 1.390625 -1.375 C 1.109375 -1.863281 0.96875 -2.445312 0.96875 -3.125 L 0.96875 -8.609375 L 2.125 -8.609375 L 2.125 -3.234375 C 2.125 -2.441406 2.320312 -1.84375 2.71875 -1.4375 C 3.125 -1.03125 3.707031 -0.828125 4.46875 -0.828125 C 5.238281 -0.828125 5.835938 -1.035156 6.265625 -1.453125 C 6.691406 -1.878906 6.90625 -2.5 6.90625 -3.3125 L 6.90625 -8.609375 L 8.078125 -8.609375 L 8.078125 -3.234375 C 8.078125 -2.535156 7.925781 -1.929688 7.625 -1.421875 C 7.332031 -0.921875 6.914062 -0.535156 6.375 -0.265625 C 5.832031 -0.00390625 5.195312 0.125 4.46875 0.125 Z M 4.46875 0.125 "/></g></g></g><g fill="#545454" fill-opacity="1"><g transform="translate(285.531102, 66.159422)"><g><path d="M 1.03125 0 L 1.03125 -8.609375 L 2.1875 -8.609375 L 2.1875 -0.953125 L 6.546875 -0.953125 L 6.546875 0 Z M 1.03125 0 "/></g></g></g><g fill="#545454" fill-opacity="1"><g transform="translate(293.986946, 66.159422)"><g><path d="M 4.40625 -7.65625 L 4.40625 0 L 3.234375 0 L 3.234375 -7.65625 L 0.28125 -7.65625 L 0.28125 -8.609375 L 7.359375 -8.609375 L 7.359375 -7.65625 Z M 4.40625 -7.65625 "/></g></g></g><g fill="#545454" fill-opacity="1"><g transform="translate(303.126597, 66.159422)"><g><path d="M 7.125 0 L 6.140625 -2.515625 L 2.21875 -2.515625 L 1.234375 0 L 0.03125 0 L 3.53125 -8.609375 L 4.859375 -8.609375 L 8.328125 0 Z M 4.1875 -7.734375 L 4.125 -7.5625 C 4.03125 -7.21875 3.878906 -6.785156 3.671875 -6.265625 L 2.578125 -3.421875 L 5.796875 -3.421875 L 4.6875 -6.265625 C 4.570312 -6.546875 4.457031 -6.863281 4.34375 -7.21875 Z M 4.1875 -7.734375 "/></g></g></g><g fill="#545454" fill-opacity="1"><g transform="translate(312.968366, 66.159422)"><g><path d="M 6.609375 0 L 2 -7.328125 L 2.03125 -6.734375 L 2.0625 -5.71875 L 2.0625 0 L 1.03125 0 L 1.03125 -8.609375 L 2.390625 -8.609375 L 7.046875 -1.234375 C 6.992188 -2.023438 6.96875 -2.601562 6.96875 -2.96875 L 6.96875 -8.609375 L 8.015625 -8.609375 L 8.015625 0 Z M 6.609375 0 "/></g></g></g><g fill="#545454" fill-opacity="1"><g transform="translate(323.500054, 66.159422)"><g><path d="M 4.40625 -7.65625 L 4.40625 0 L 3.234375 0 L 3.234375 -7.65625 L 0.28125 -7.65625 L 0.28125 -8.609375 L 7.359375 -8.609375 L 7.359375 -7.65625 Z M 4.40625 -7.65625 "/></g></g></g><g clip-path="url(#03ec2d66c0)"><path fill="#5965ff" d="M 100.667969 7.007812 C 91.816406 6.84375 83.824219 10.515625 78.246094 16.460938 C 75.75 19.121094 76.53125 23.433594 79.765625 25.125 C 81.976562 26.28125 84.722656 25.878906 86.429688 24.066406 C 89.847656 20.429688 94.707031 18.160156 100.101562 18.160156 C 110.59375 18.160156 119.070312 26.753906 118.835938 37.265625 C 118.679688 44.28125 114.5 50.648438 108.160156 53.707031 C 98.625 58.308594 89.082031 52.261719 80.746094 47.847656 C 68.796875 41.519531 56.847656 35.191406 44.898438 28.863281 C 42.21875 27.445312 38.894531 28.46875 37.480469 31.148438 C 36.089844 33.792969 37.085938 37.058594 39.722656 38.480469 C 43.355469 40.445312 47.792969 43.023438 48.546875 43.421875 C 53.414062 45.964844 58.28125 48.507812 63.148438 51.054688 C 69.148438 54.1875 75.101562 57.421875 81.164062 60.433594 C 87.292969 63.480469 93.101562 66.675781 100.101562 66.675781 C 116.875 66.675781 130.429688 52.921875 130.023438 36.109375 C 129.644531 20.222656 116.605469 7.300781 100.667969 7.007812 " fill-opacity="1" fill-rule="nonzero"/></g><g clip-path="url(#741bb29ce4)"><path fill="#545454" d="M 29.8125 66.671875 C 38.660156 66.835938 46.652344 63.167969 52.230469 57.21875 C 54.726562 54.558594 53.949219 50.246094 50.710938 48.554688 L 50.535156 48.460938 C 48.363281 47.324219 45.726562 47.832031 44.046875 49.613281 C 40.628906 53.25 35.769531 55.519531 30.378906 55.519531 C 19.886719 55.519531 11.410156 46.925781 11.640625 36.414062 C 11.796875 29.398438 15.980469 23.03125 22.320312 19.972656 C 31.855469 15.375 41.394531 21.417969 49.730469 25.832031 C 61.679688 32.160156 73.628906 38.488281 85.578125 44.816406 C 88.257812 46.234375 91.585938 45.210938 92.996094 42.53125 C 94.386719 39.886719 93.390625 36.621094 90.757812 35.199219 C 87.121094 33.234375 82.6875 30.65625 81.929688 30.257812 C 77.0625 27.714844 72.195312 25.171875 67.328125 22.625 C 61.328125 19.492188 55.378906 16.257812 49.3125 13.246094 C 43.1875 10.199219 37.378906 7.003906 30.378906 7.003906 C 13.601562 7.003906 0.0507812 20.757812 0.453125 37.570312 C 0.835938 53.457031 13.875 66.378906 29.8125 66.671875 " fill-opacity="1" fill-rule="nonzero"/></g></svg>