<svg version="1.1" id="Layer_1" xmlns="http://www.w3.org/2000/svg" xmlns:xlink="http://www.w3.org/1999/xlink" x="0px" y="0px"
	 width="100%" viewBox="0 0 2000 500" enable-background="new 0 0 2000 500" xml:space="preserve">
<path fill="#FFFFFF" opacity="1.000000" stroke="none" 
	d="
M1896.000000,501.000000 
	C1264.000000,501.000000 632.500000,501.000000 1.000000,501.000000 
	C1.000000,334.333344 1.000000,167.666672 1.000000,1.000000 
	C667.666687,1.000000 1334.333374,1.000000 2001.000000,1.000000 
	C2001.000000,167.666672 2001.000000,334.333344 2001.000000,501.000000 
	C1966.166626,501.000000 1931.333374,501.000000 1896.000000,501.000000 
M1602.906372,167.337311 
	C1602.355469,167.317413 1601.804688,167.297501 1601.253906,167.277603 
	C1601.267822,167.629425 1601.281738,167.981262 1601.433838,169.000565 
	C1601.747559,169.324066 1602.061401,169.647583 1602.295776,170.528442 
	C1603.632446,171.994003 1604.933350,173.494339 1606.312012,174.919159 
	C1613.125122,181.959900 1619.959106,188.980637 1626.232910,196.570084 
	C1625.443481,197.451004 1624.654053,198.331924 1623.864624,199.212845 
	C1624.223267,199.597137 1624.582031,199.981430 1624.940796,200.365707 
	C1626.277222,199.243027 1628.393311,198.313644 1628.732910,196.943771 
	C1629.079102,195.547287 1627.678711,193.717712 1626.513794,191.795853 
	C1626.002441,191.193024 1625.491211,190.590195 1624.867188,189.332932 
	C1624.254028,189.109299 1623.640747,188.885651 1623.126099,188.312469 
	C1623.126099,188.312469 1622.972778,187.983246 1622.854248,187.333511 
	C1622.245117,187.108017 1621.636108,186.882507 1621.127441,186.309433 
	C1621.127441,186.309433 1620.971924,185.982758 1620.846802,185.333923 
	C1620.240112,185.101532 1619.633423,184.869141 1619.132935,184.300812 
	C1619.132935,184.300812 1618.976562,183.985077 1618.845825,183.335846 
	C1618.239624,183.098999 1617.633301,182.862152 1617.134399,182.293625 
	C1617.134399,182.293625 1616.975220,181.983475 1616.937744,181.444580 
	C1616.630737,181.304626 1616.323853,181.164688 1615.575928,180.780762 
	C1615.375854,180.514999 1615.175781,180.249252 1614.938721,179.444778 
	C1614.631958,179.305466 1614.325317,179.166138 1613.700684,178.867188 
	C1613.700684,178.867188 1613.359253,178.967560 1613.066040,178.374649 
	C1612.715454,177.924530 1612.364868,177.474411 1611.687622,176.870041 
	C1611.687622,176.870041 1611.340454,176.969940 1611.062866,176.372025 
	C1610.713867,175.923828 1610.364990,175.475647 1609.447144,174.721008 
	C1607.767334,173.133408 1606.087646,171.545807 1604.057983,169.399277 
	C1603.746216,168.887238 1603.434448,168.375214 1602.906372,167.337311 
M433.091980,163.589661 
	C433.091980,163.589661 433.206238,164.054871 433.015350,164.967896 
	C433.027283,181.963776 433.039215,198.959671 432.906952,216.747726 
	C433.010742,217.543396 433.114532,218.339081 433.110291,220.041748 
	C433.110291,223.911026 433.110291,227.780304 433.110291,231.669357 
	C437.694702,231.669357 441.744659,231.669357 446.765198,231.498581 
	C464.903687,231.498581 483.042206,231.498581 502.161255,231.498581 
	C502.161255,224.970352 502.161255,218.563431 503.077637,212.125153 
	C518.636963,212.125153 534.196350,212.125153 549.684448,212.125153 
	C549.684448,190.297012 549.684448,169.251694 549.684448,148.152954 
	C528.895386,148.152954 508.441406,148.152954 487.060822,148.014572 
	C476.044189,148.053268 465.027557,148.091980 453.075897,147.972946 
	C446.431854,147.972946 439.787842,147.972946 433.132202,147.972946 
	C433.132202,152.714493 433.132202,156.821991 433.023376,161.662491 
	C433.088593,162.150925 433.153839,162.639359 433.091980,163.589661 
M1562.430664,188.426208 
	C1562.981079,187.288452 1563.531494,186.150696 1564.696045,184.907822 
	C1564.892212,184.181992 1565.088379,183.456161 1565.615967,182.218613 
	C1565.767578,181.841827 1565.919189,181.465042 1566.697388,180.962463 
	C1566.895264,180.224335 1567.093262,179.486221 1567.732544,178.038208 
	C1568.135620,175.985214 1568.538696,173.932236 1569.550537,172.643127 
	C1570.187012,171.853668 1570.823486,171.064209 1571.459839,170.274750 
	C1571.040771,170.012817 1570.621704,169.750885 1570.202515,169.488937 
	C1569.802368,170.326813 1569.402222,171.164688 1568.324097,172.295212 
	C1566.589478,175.843475 1564.854980,179.391739 1562.930054,183.345200 
	C1562.930054,183.345200 1562.958496,183.791916 1562.370605,184.122559 
	C1561.907227,185.409729 1561.443848,186.696884 1560.300293,188.255798 
	C1560.338989,188.851013 1560.377686,189.446228 1560.416382,190.041382 
	C1560.896606,189.594345 1561.376831,189.147308 1562.430664,188.426208 
M1507.304810,198.870071 
	C1506.639404,197.086517 1505.973877,195.302948 1505.376709,193.702362 
	C1503.109497,197.437027 1503.518066,199.330139 1506.989746,200.772079 
	C1509.881714,203.598022 1512.775635,206.421967 1515.663696,209.251862 
	C1516.170166,209.748077 1516.652222,210.269241 1517.145508,210.778915 
	C1517.553589,210.378479 1517.961670,209.978043 1518.369873,209.577606 
	C1514.793823,206.235001 1511.217773,202.892395 1507.304810,198.870071 
M1555.992310,197.957321 
	C1555.992310,197.957321 1555.949585,197.880676 1555.197510,197.956299 
	C1554.455078,198.916611 1553.541870,199.789474 1552.997925,200.851471 
	C1549.575684,207.535522 1546.235596,214.261612 1542.156128,221.396790 
	C1542.156128,223.153137 1542.156128,224.909470 1542.156128,226.320633 
	C1545.219849,227.083221 1548.963135,226.881760 1550.294922,228.575989 
	C1553.326416,232.432297 1556.130981,230.850143 1559.777954,228.900314 
	C1555.638916,226.448288 1551.499878,223.996262 1547.023315,221.344238 
	C1547.876953,219.467163 1548.690552,217.689240 1549.494995,215.907272 
	C1552.338501,209.609497 1555.179077,203.310364 1558.485352,196.163956 
	C1558.241333,195.415573 1557.997314,194.667191 1557.753296,193.918823 
	C1557.167969,194.300705 1556.248047,194.569366 1556.071777,195.089691 
	C1555.772339,195.974411 1555.940918,197.017624 1555.992310,197.957321 
M1528.720581,194.016891 
	C1538.776733,184.639496 1541.610596,181.064682 1541.091553,177.241013 
	C1535.755005,183.119354 1530.842163,188.530945 1525.329712,194.273697 
	C1525.192627,195.554825 1524.439331,197.384109 1525.015015,198.031250 
	C1530.036133,203.676331 1535.295166,209.109711 1541.170044,215.333115 
	C1541.626953,210.997864 1534.626221,203.058563 1526.481689,196.809753 
	C1526.998657,195.843216 1527.492065,194.921036 1528.720581,194.016891 
M1607.934814,196.251740 
	C1607.801880,195.350830 1607.668945,194.449921 1607.133667,193.013733 
	C1601.669312,187.721939 1596.205078,182.430145 1590.923462,176.425064 
	C1593.327271,173.557098 1595.731079,170.689133 1598.134766,167.821167 
	C1597.723633,167.452972 1597.312500,167.084763 1596.901367,166.716568 
	C1594.813721,168.686646 1593.032104,171.558060 1590.560425,172.397293 
	C1587.513916,173.431702 1587.677734,174.872208 1588.024780,177.851196 
	C1592.136475,181.869766 1596.282715,185.853928 1600.345093,189.921799 
	C1602.283081,191.862442 1604.061523,193.962387 1605.192139,195.976639 
	C1599.558594,201.423462 1593.925049,206.870285 1587.666748,212.921127 
	C1586.123047,217.358612 1591.619385,218.226181 1593.881592,221.001572 
	C1597.296997,225.191757 1600.823730,224.922607 1604.720215,221.024216 
	C1608.130981,217.611679 1611.661011,214.315506 1614.996338,210.831802 
	C1617.101807,208.632660 1618.945923,206.183319 1620.907349,203.846207 
	C1620.585205,203.572357 1620.262939,203.298523 1619.940674,203.024673 
	C1613.362671,209.893570 1606.784668,216.762466 1600.448853,223.378418 
	C1596.698242,219.880829 1593.821899,217.198502 1590.639038,214.230377 
	C1592.251465,212.511353 1593.710938,210.965607 1595.159180,209.409286 
	C1599.191406,205.075928 1603.218994,200.738342 1607.325317,196.368515 
	C1607.325317,196.368515 1607.373657,196.299835 1607.934814,196.251740 
M1520.649414,177.137222 
	C1517.654541,180.520859 1514.659546,183.904480 1511.664673,187.288101 
	C1512.150391,187.698807 1512.636108,188.109497 1513.121826,188.520203 
	C1519.581055,181.900528 1526.040405,175.280838 1532.747803,168.406815 
	C1535.571411,171.067810 1538.279785,173.620148 1540.988159,176.172501 
	C1541.436890,175.810913 1541.885498,175.449341 1542.334229,175.087769 
	C1540.563843,172.725739 1539.231201,169.659393 1536.895264,168.207336 
	C1534.725464,166.858673 1531.485229,167.232254 1530.093018,167.038803 
	C1526.729614,170.839096 1524.052612,173.863983 1520.649414,177.137222 
M1575.772827,163.325424 
	C1575.021118,162.599701 1574.269287,161.873978 1573.517578,161.148209 
	C1572.567627,163.429886 1571.617676,165.711548 1570.667725,167.993225 
	C1571.181763,168.200439 1571.695801,168.407654 1572.209839,168.614868 
	C1573.353760,167.057449 1574.497803,165.500046 1575.772827,163.325424 
M1508.255127,191.824677 
	C1508.322144,192.057007 1508.389160,192.289352 1508.456177,192.521713 
	C1508.559204,192.428741 1508.754761,192.327896 1508.747681,192.244308 
	C1508.727173,192.003754 1508.624634,191.770187 1508.255127,191.824677 
M1510.839355,190.252518 
	C1510.752197,189.992706 1510.664917,189.732880 1510.577759,189.473022 
	C1510.462646,189.578934 1510.242310,189.696442 1510.252441,189.788620 
	C1510.281616,190.053772 1510.403931,190.308670 1510.839355,190.252518 
M1558.999390,192.543732 
	C1558.777100,192.472931 1558.554810,192.402145 1558.332520,192.331345 
	C1558.409546,192.553101 1558.486572,192.774857 1558.999390,192.543732 
z"/>
<path fill="#3D3D3D" opacity="1.000000" stroke="none" 
	d="
M433.132202,160.929489 
	C433.132202,156.821991 433.132202,152.714493 433.132202,147.972946 
	C439.787842,147.972946 446.431854,147.972946 453.536652,148.412857 
	C455.077698,150.651474 455.869110,152.727402 457.285553,154.203552 
	C465.986633,163.271561 474.806549,172.226257 483.658936,181.147232 
	C484.551819,182.047043 485.925018,182.470215 487.987457,183.625534 
	C487.987457,171.012650 487.987457,159.582809 487.987457,148.152954 
	C508.441406,148.152954 528.895386,148.152954 549.684448,148.152954 
	C549.684448,169.251694 549.684448,190.297012 549.684448,212.125153 
	C534.196350,212.125153 518.636963,212.125153 502.308990,211.990250 
	C501.312866,211.821274 501.085419,211.787216 500.892639,211.436111 
	C500.973846,210.697327 501.020447,210.275589 501.056274,209.410553 
	C501.027863,205.640656 501.010223,202.314026 500.984650,198.602234 
	C501.802277,197.117386 502.590485,195.986893 503.465057,194.927719 
	C504.176849,194.065720 504.992065,193.289139 506.115082,192.327148 
	C506.395966,191.463547 506.363190,190.130402 506.244537,190.122696 
	C503.938263,189.973328 501.595367,190.191208 499.313538,189.905716 
	C495.234467,189.395340 491.190918,188.600586 486.856476,187.729309 
	C474.713928,175.736389 462.783020,164.002502 451.028534,152.094437 
	C448.264465,149.294235 446.331177,149.225586 443.735687,152.198120 
	C441.019592,155.308884 437.887299,158.056274 434.635986,160.944580 
	C433.934113,160.927628 433.533173,160.928558 433.132202,160.929489 
z"/>
<path fill="#838383" opacity="1.000000" stroke="none" 
	d="
M487.132538,187.924728 
	C491.190918,188.600586 495.234467,189.395340 499.313538,189.905716 
	C501.595367,190.191208 503.938263,189.973328 506.244537,190.122696 
	C506.363190,190.130402 506.395966,191.463547 505.680237,192.204956 
	C500.735413,192.212662 496.573303,192.064606 492.425629,192.245819 
	C490.909882,192.312027 489.154327,192.804718 487.977478,193.711777 
	C482.161072,198.194687 477.711914,203.341400 479.520355,211.609818 
	C480.035431,213.964615 479.337280,216.568115 479.346832,219.057007 
	C479.351746,220.342804 479.688507,221.627319 479.875336,222.912399 
	C481.246063,222.428864 481.570831,221.929337 481.828735,221.397385 
	C486.729279,211.290329 483.901367,211.946976 494.405640,212.048706 
	C496.555267,212.069534 498.707153,211.857712 500.858002,211.753143 
	C501.085419,211.787216 501.312866,211.821274 501.850800,212.005920 
	C502.161255,218.563431 502.161255,224.970352 502.161255,231.498581 
	C483.042206,231.498581 464.903687,231.498581 446.133728,231.386581 
	C445.314728,230.681625 445.127228,230.088654 445.368530,229.553543 
	C447.667908,228.934769 450.027374,228.763916 451.332581,227.502335 
	C462.910187,216.311996 474.365021,204.991318 485.651520,193.508011 
	C486.824493,192.314575 486.670715,189.817123 487.132538,187.924728 
z"/>
<path fill="#2F2F2F" opacity="1.000000" stroke="none" 
	d="
M487.524139,148.083771 
	C487.987457,159.582809 487.987457,171.012650 487.987457,183.625534 
	C485.925018,182.470215 484.551819,182.047043 483.658936,181.147232 
	C474.806549,172.226257 465.986633,163.271561 457.285553,154.203552 
	C455.869110,152.727402 455.077698,150.651474 454.004150,148.491730 
	C465.027557,148.091980 476.044189,148.053268 487.524139,148.083771 
z"/>
<path fill="#080808" opacity="1.000000" stroke="none" 
	d="
M433.051117,215.955551 
	C433.039215,198.959671 433.027283,181.963776 433.321838,164.517700 
	C433.628326,164.067505 434.036377,163.958786 434.324402,163.984528 
	C434.793671,163.944626 434.974915,163.878952 435.386169,164.053833 
	C443.345367,172.006912 451.074493,179.719452 458.848633,187.848465 
	C457.707794,188.870712 456.534821,189.968811 455.333862,190.000275 
	C448.769348,190.172256 442.197998,190.082199 435.244385,190.082199 
	C435.244385,197.969315 435.351074,205.085785 435.145660,212.193222 
	C435.108856,213.466446 433.782196,214.702393 433.051117,215.955551 
z"/>
<path fill="#838383" opacity="1.000000" stroke="none" 
	d="
M432.979034,216.351639 
	C433.782196,214.702393 435.108856,213.466446 435.145660,212.193222 
	C435.351074,205.085785 435.244385,197.969315 435.244385,190.082199 
	C442.197998,190.082199 448.769348,190.172256 455.333862,190.000275 
	C456.534821,189.968811 457.707794,188.870712 459.164490,187.773224 
	C462.185272,189.045990 463.002686,190.544800 460.030609,193.328979 
	C452.400116,200.477020 445.082947,207.964417 437.781616,215.453735 
	C436.643036,216.621597 436.244720,218.511154 435.252380,220.151718 
	C434.406525,219.869217 433.812439,219.501984 433.218323,219.134750 
	C433.114532,218.339081 433.010742,217.543396 432.979034,216.351639 
z"/>
<path fill="#838383" opacity="1.000000" stroke="none" 
	d="
M1607.248413,196.402435 
	C1603.218994,200.738342 1599.191406,205.075928 1595.159180,209.409286 
	C1593.710938,210.965607 1592.251465,212.511353 1590.639038,214.230377 
	C1593.821899,217.198502 1596.698242,219.880829 1600.448853,223.378418 
	C1606.784668,216.762466 1613.362671,209.893570 1619.940674,203.024673 
	C1620.262939,203.298523 1620.585205,203.572357 1620.907349,203.846207 
	C1618.945923,206.183319 1617.101807,208.632660 1614.996338,210.831802 
	C1611.661011,214.315506 1608.130981,217.611679 1604.720215,221.024216 
	C1600.823730,224.922607 1597.296997,225.191757 1593.881592,221.001572 
	C1591.619385,218.226181 1586.123047,217.358612 1587.666748,212.921127 
	C1593.925049,206.870285 1599.558594,201.423462 1605.902588,196.033218 
	C1606.824951,196.194016 1607.036621,196.298233 1607.248413,196.402435 
z"/>
<path fill="#838383" opacity="1.000000" stroke="none" 
	d="
M1558.020874,197.011780 
	C1555.179077,203.310364 1552.338501,209.609497 1549.494995,215.907272 
	C1548.690552,217.689240 1547.876953,219.467163 1547.023315,221.344238 
	C1551.499878,223.996262 1555.638916,226.448288 1559.777954,228.900314 
	C1556.130981,230.850143 1553.326416,232.432297 1550.294922,228.575989 
	C1548.963135,226.881760 1545.219849,227.083221 1542.156128,226.320633 
	C1542.156128,224.909470 1542.156128,223.153137 1542.771484,221.322662 
	C1543.970703,221.375031 1544.990234,221.739395 1545.071045,221.591370 
	C1545.937622,220.003464 1546.663452,218.338028 1547.413574,216.687332 
	C1550.261719,210.419754 1553.104614,204.149750 1555.949585,197.880676 
	C1555.949585,197.880676 1555.992310,197.957321 1556.238037,197.895813 
	C1556.996216,197.560120 1557.508545,197.285950 1558.020874,197.011780 
z"/>
<path fill="#838383" opacity="1.000000" stroke="none" 
	d="
M1521.012451,177.013046 
	C1524.052612,173.863983 1526.729614,170.839096 1530.093018,167.038803 
	C1531.485229,167.232254 1534.725464,166.858673 1536.895264,168.207336 
	C1539.231201,169.659393 1540.563843,172.725739 1542.334229,175.087769 
	C1541.885498,175.449341 1541.436890,175.810913 1540.988159,176.172501 
	C1538.279785,173.620148 1535.571411,171.067810 1532.747803,168.406815 
	C1526.040405,175.280838 1519.581055,181.900528 1513.121826,188.520203 
	C1512.636108,188.109497 1512.150391,187.698807 1511.664673,187.288101 
	C1514.659546,183.904480 1517.654541,180.520859 1521.012451,177.013046 
z"/>
<path fill="#3D3D3D" opacity="1.000000" stroke="none" 
	d="
M433.164307,219.588257 
	C433.812439,219.501984 434.406525,219.869217 435.285614,220.329071 
	C435.570587,220.421692 435.727356,220.746902 435.780518,220.987167 
	C436.365692,221.567734 436.897675,221.908035 437.532959,222.319504 
	C437.636261,222.390671 437.733307,222.622055 437.769165,222.881958 
	C438.367706,223.500336 438.930359,223.858810 439.732727,224.452591 
	C440.904236,225.651443 441.836029,226.614990 442.801178,227.829666 
	C443.342896,228.476852 443.851288,228.872894 444.503479,229.328674 
	C444.647308,229.388397 444.939728,229.495682 444.939728,229.495682 
	C445.127228,230.088654 445.314728,230.681625 445.648438,231.471970 
	C441.744659,231.669357 437.694702,231.669357 433.110291,231.669357 
	C433.110291,227.780304 433.110291,223.911026 433.164307,219.588257 
z"/>
<path fill="#838383" opacity="1.000000" stroke="none" 
	d="
M1626.785645,196.008392 
	C1619.959106,188.980637 1613.125122,181.959900 1606.312012,174.919159 
	C1604.933350,173.494339 1603.632446,171.994003 1602.844238,170.275757 
	C1603.731201,170.001434 1604.069580,169.979813 1604.407959,169.958206 
	C1606.087646,171.545807 1607.767334,173.133408 1609.650879,175.220779 
	C1610.349976,176.137009 1610.845215,176.553452 1611.340454,176.969925 
	C1611.340454,176.969940 1611.687622,176.870041 1611.769165,177.296570 
	C1612.353516,178.137909 1612.856445,178.552719 1613.359253,178.967545 
	C1613.359253,178.967560 1613.700684,178.867188 1613.857910,179.228348 
	C1614.335205,179.720856 1614.655518,179.852203 1614.975708,179.983521 
	C1615.175781,180.249252 1615.375854,180.514999 1615.792236,181.185669 
	C1616.330688,181.721542 1616.652954,181.852509 1616.975220,181.983490 
	C1616.975220,181.983475 1617.134399,182.293625 1617.161255,182.807648 
	C1617.784302,183.542816 1618.380371,183.763947 1618.976562,183.985077 
	C1618.976562,183.985077 1619.132935,184.300812 1619.159180,184.814911 
	C1619.780884,185.546906 1620.376343,185.764816 1620.971924,185.982727 
	C1620.971924,185.982758 1621.127441,186.309433 1621.150879,186.830322 
	C1621.773926,187.561874 1622.373291,187.772552 1622.972778,187.983246 
	C1622.972778,187.983246 1623.126099,188.312469 1623.141602,188.840256 
	C1623.764648,189.574478 1624.372314,189.780930 1624.979858,189.987366 
	C1625.491211,190.590195 1626.002441,191.193024 1626.722656,192.278107 
	C1626.882812,193.843063 1626.834229,194.925735 1626.785645,196.008392 
z"/>
<path fill="#3D3D3D" opacity="1.000000" stroke="none" 
	d="
M1607.286865,196.385483 
	C1607.036621,196.298233 1606.824951,196.194016 1606.262695,196.039978 
	C1604.061523,193.962387 1602.283081,191.862442 1600.345093,189.921799 
	C1596.282715,185.853928 1592.136475,181.869766 1588.418579,177.456451 
	C1589.455200,177.087250 1590.098022,177.112793 1590.740845,177.138336 
	C1596.205078,182.430145 1601.669312,187.721939 1607.190918,193.729370 
	C1607.289917,195.063278 1607.331787,195.681549 1607.373657,196.299835 
	C1607.373657,196.299835 1607.325317,196.368515 1607.286865,196.385483 
z"/>
<path fill="#3D3D3D" opacity="1.000000" stroke="none" 
	d="
M1527.985352,193.998871 
	C1527.492065,194.921036 1526.998657,195.843216 1526.481689,196.809753 
	C1534.626221,203.058563 1541.626953,210.997864 1541.170044,215.333115 
	C1535.295166,209.109711 1530.036133,203.676331 1525.015015,198.031250 
	C1524.439331,197.384109 1525.192627,195.554825 1525.966064,194.199463 
	C1527.063477,194.083130 1527.524414,194.041016 1527.985352,193.998871 
z"/>
<path fill="#838383" opacity="1.000000" stroke="none" 
	d="
M1528.353027,194.007889 
	C1527.524414,194.041016 1527.063477,194.083130 1526.265869,194.033905 
	C1530.842163,188.530945 1535.755005,183.119354 1541.091553,177.241013 
	C1541.610596,181.064682 1538.776733,184.639496 1528.353027,194.007889 
z"/>
<path fill="#3D3D3D" opacity="1.000000" stroke="none" 
	d="
M1555.573486,197.918488 
	C1553.104614,204.149750 1550.261719,210.419754 1547.413574,216.687332 
	C1546.663452,218.338028 1545.937622,220.003464 1545.071045,221.591370 
	C1544.990234,221.739395 1543.970703,221.375031 1543.127563,221.111176 
	C1546.235596,214.261612 1549.575684,207.535522 1552.997925,200.851471 
	C1553.541870,199.789474 1554.455078,198.916611 1555.573486,197.918488 
z"/>
<path fill="#3D3D3D" opacity="1.000000" stroke="none" 
	d="
M1507.641724,199.549759 
	C1511.217773,202.892395 1514.793823,206.235001 1518.369873,209.577606 
	C1517.961670,209.978043 1517.553589,210.378479 1517.145508,210.778915 
	C1516.652222,210.269241 1516.170166,209.748077 1515.663696,209.251862 
	C1512.775635,206.421967 1509.881714,203.598022 1507.150635,200.280426 
	C1507.311646,199.788773 1507.641724,199.549744 1507.641724,199.549759 
z"/>
<path fill="#838383" opacity="1.000000" stroke="none" 
	d="
M1590.832153,176.781693 
	C1590.098022,177.112793 1589.455200,177.087250 1588.489258,177.074036 
	C1587.677734,174.872208 1587.513916,173.431702 1590.560425,172.397293 
	C1593.032104,171.558060 1594.813721,168.686646 1596.901367,166.716568 
	C1597.312500,167.084763 1597.723633,167.452972 1598.134766,167.821167 
	C1595.731079,170.689133 1593.327271,173.557098 1590.832153,176.781693 
z"/>
<path fill="#3D3D3D" opacity="1.000000" stroke="none" 
	d="
M1575.707275,163.634033 
	C1574.497803,165.500046 1573.353760,167.057449 1572.209839,168.614868 
	C1571.695801,168.407654 1571.181763,168.200439 1570.667725,167.993225 
	C1571.617676,165.711548 1572.567627,163.429886 1573.517578,161.148224 
	C1574.269287,161.873978 1575.021118,162.599701 1575.707275,163.634033 
z"/>
<path fill="#3D3D3D" opacity="1.000000" stroke="none" 
	d="
M1563.120361,182.940018 
	C1564.854980,179.391739 1566.589478,175.843475 1568.646362,172.118866 
	C1568.968628,171.942535 1568.941772,171.879257 1568.941772,171.879257 
	C1568.538696,173.932236 1568.135620,175.985214 1567.234375,178.498505 
	C1566.514526,179.668610 1566.292725,180.378433 1566.070801,181.088272 
	C1565.919189,181.465042 1565.767578,181.841827 1565.177734,182.510345 
	C1564.199829,182.848053 1563.660034,182.894028 1563.120361,182.940018 
z"/>
<path fill="#3D3D3D" opacity="1.000000" stroke="none" 
	d="
M1626.509277,196.289246 
	C1626.834229,194.925735 1626.882812,193.843063 1626.987305,192.419067 
	C1627.678711,193.717712 1629.079102,195.547287 1628.732910,196.943771 
	C1628.393311,198.313644 1626.277222,199.243027 1624.940796,200.365707 
	C1624.582031,199.981430 1624.223267,199.597137 1623.864624,199.212845 
	C1624.654053,198.331924 1625.443481,197.451004 1626.509277,196.289246 
z"/>
<path fill="#3D3D3D" opacity="1.000000" stroke="none" 
	d="
M1507.144653,199.905533 
	C1503.518066,199.330139 1503.109497,197.437027 1505.376709,193.702362 
	C1505.973877,195.302948 1506.639404,197.086517 1507.473267,199.209900 
	C1507.641724,199.549744 1507.311646,199.788773 1507.144653,199.905533 
z"/>
<path fill="#3D3D3D" opacity="1.000000" stroke="none" 
	d="
M1560.980469,187.984039 
	C1561.443848,186.696884 1561.907227,185.409729 1562.791992,184.215973 
	C1563.503052,184.543930 1563.792480,184.778442 1564.082031,185.012939 
	C1563.531494,186.150696 1562.981079,187.288452 1561.936279,188.370148 
	C1561.288086,188.204071 1561.134277,188.094055 1560.980469,187.984039 
z"/>
<path fill="#3D3D3D" opacity="1.000000" stroke="none" 
	d="
M1558.253174,196.587860 
	C1557.508545,197.285950 1556.996216,197.560120 1556.198364,197.914246 
	C1555.940918,197.017624 1555.772339,195.974411 1556.071777,195.089691 
	C1556.248047,194.569366 1557.167969,194.300705 1557.753296,193.918823 
	C1557.997314,194.667191 1558.241333,195.415573 1558.253174,196.587860 
z"/>
<path fill="#838383" opacity="1.000000" stroke="none" 
	d="
M1564.389038,184.960388 
	C1563.792480,184.778442 1563.503052,184.543930 1563.085938,184.050659 
	C1562.958496,183.791916 1562.930054,183.345200 1563.025146,183.142609 
	C1563.660034,182.894028 1564.199829,182.848053 1565.011963,182.766205 
	C1565.088379,183.456161 1564.892212,184.181992 1564.389038,184.960388 
z"/>
<path fill="#838383" opacity="1.000000" stroke="none" 
	d="
M435.156128,163.813293 
	C434.974915,163.878952 434.793671,163.944626 434.243042,163.800385 
	C433.687134,163.391464 433.468933,163.237244 433.219086,163.127792 
	C433.153839,162.639359 433.088593,162.150925 433.077789,161.295990 
	C433.533173,160.928558 433.934113,160.927628 434.711670,161.298080 
	C435.110901,162.384079 435.133514,163.098679 435.156128,163.813293 
z"/>
<path fill="#3D3D3D" opacity="1.000000" stroke="none" 
	d="
M1568.985352,171.972534 
	C1569.402222,171.164688 1569.802368,170.326813 1570.202515,169.488937 
	C1570.621704,169.750885 1571.040771,170.012817 1571.459839,170.274750 
	C1570.823486,171.064209 1570.187012,171.853668 1569.246094,172.261200 
	C1568.941772,171.879257 1568.968628,171.942535 1568.985352,171.972534 
z"/>
<path fill="#838383" opacity="1.000000" stroke="none" 
	d="
M1607.654297,196.275787 
	C1607.331787,195.681549 1607.289917,195.063278 1607.392090,193.996994 
	C1607.668945,194.449921 1607.801880,195.350830 1607.654297,196.275787 
z"/>
<path fill="#838383" opacity="1.000000" stroke="none" 
	d="
M1566.384033,181.025360 
	C1566.292725,180.378433 1566.514526,179.668610 1567.013794,178.853439 
	C1567.093262,179.486221 1566.895264,180.224335 1566.384033,181.025360 
z"/>
<path fill="#838383" opacity="1.000000" stroke="none" 
	d="
M1508.404785,191.679260 
	C1508.624634,191.770187 1508.727173,192.003754 1508.747681,192.244308 
	C1508.754761,192.327896 1508.559204,192.428741 1508.456299,192.521698 
	C1508.389160,192.289352 1508.322144,192.057007 1508.404785,191.679260 
z"/>
<path fill="#3D3D3D" opacity="1.000000" stroke="none" 
	d="
M1624.923584,189.660156 
	C1624.372314,189.780930 1623.764648,189.574478 1623.092285,189.015015 
	C1623.640747,188.885651 1624.254028,189.109299 1624.923584,189.660156 
z"/>
<path fill="#3D3D3D" opacity="1.000000" stroke="none" 
	d="
M1613.212646,178.671082 
	C1612.856445,178.552719 1612.353516,178.137909 1611.932495,177.373688 
	C1612.364868,177.474411 1612.715454,177.924530 1613.212646,178.671082 
z"/>
<path fill="#3D3D3D" opacity="1.000000" stroke="none" 
	d="
M1611.201660,176.670959 
	C1610.845215,176.553452 1610.349976,176.137009 1609.935303,175.374008 
	C1610.364990,175.475647 1610.713867,175.923828 1611.201660,176.670959 
z"/>
<path fill="#838383" opacity="1.000000" stroke="none" 
	d="
M1510.664551,190.410065 
	C1510.403931,190.308670 1510.281616,190.053772 1510.252441,189.788620 
	C1510.242310,189.696442 1510.462646,189.578934 1510.577759,189.473038 
	C1510.664917,189.732880 1510.752197,189.992706 1510.664551,190.410065 
z"/>
<path fill="#3D3D3D" opacity="1.000000" stroke="none" 
	d="
M1604.232910,169.678741 
	C1604.069580,169.979813 1603.731201,170.001434 1602.884033,169.997070 
	C1602.061401,169.647583 1601.747559,169.324066 1601.842529,168.630875 
	C1602.541504,168.128525 1602.832031,167.995865 1603.122559,167.863190 
	C1603.434448,168.375214 1603.746216,168.887238 1604.232910,169.678741 
z"/>
<path fill="#3D3D3D" opacity="1.000000" stroke="none" 
	d="
M1601.773438,168.297150 
	C1601.281738,167.981262 1601.267822,167.629425 1601.253906,167.277588 
	C1601.804688,167.297501 1602.355469,167.317413 1603.014404,167.600250 
	C1602.832031,167.995865 1602.541504,168.128525 1601.773438,168.297150 
z"/>
<path fill="#3D3D3D" opacity="1.000000" stroke="none" 
	d="
M1561.649414,188.507187 
	C1561.376831,189.147308 1560.896606,189.594345 1560.416382,190.041412 
	C1560.377686,189.446228 1560.338989,188.851013 1560.640381,188.119904 
	C1561.134277,188.094055 1561.288086,188.204071 1561.649414,188.507187 
z"/>
<path fill="#3D3D3D" opacity="1.000000" stroke="none" 
	d="
M1622.913574,187.658386 
	C1622.373291,187.772552 1621.773926,187.561874 1621.100708,187.004105 
	C1621.636108,186.882507 1622.245117,187.108017 1622.913574,187.658386 
z"/>
<path fill="#3D3D3D" opacity="1.000000" stroke="none" 
	d="
M1618.911133,183.660461 
	C1618.380371,183.763947 1617.784302,183.542816 1617.107666,182.973480 
	C1617.633301,182.862152 1618.239624,183.098999 1618.911133,183.660461 
z"/>
<path fill="#3D3D3D" opacity="1.000000" stroke="none" 
	d="
M1620.909424,185.658325 
	C1620.376343,185.764816 1619.780884,185.546906 1619.105957,184.982880 
	C1619.633423,184.869141 1620.240112,185.101532 1620.909424,185.658325 
z"/>
<path fill="#3D3D3D" opacity="1.000000" stroke="none" 
	d="
M1616.956543,181.714035 
	C1616.652954,181.852509 1616.330688,181.721542 1616.012695,181.307648 
	C1616.323853,181.164688 1616.630737,181.304626 1616.956543,181.714035 
z"/>
<path fill="#3D3D3D" opacity="1.000000" stroke="none" 
	d="
M1614.957275,179.714172 
	C1614.655518,179.852203 1614.335205,179.720856 1614.016846,179.308167 
	C1614.325317,179.166138 1614.631958,179.305466 1614.957275,179.714172 
z"/>
<path fill="#3D3D3D" opacity="1.000000" stroke="none" 
	d="
M1558.781494,192.770172 
	C1558.486572,192.774857 1558.409546,192.553101 1558.332520,192.331345 
	C1558.554810,192.402145 1558.777100,192.472931 1558.781494,192.770172 
z"/>
<path fill="#3D3D3D" opacity="1.000000" stroke="none" 
	d="
M433.155518,163.358734 
	C433.468933,163.237244 433.687134,163.391464 433.955048,163.774628 
	C434.036377,163.958786 433.628326,164.067505 433.417297,164.061188 
	C433.206238,164.054871 433.091980,163.589661 433.155518,163.358734 
z"/>
<path fill="#FFFFFF" opacity="1.000000" stroke="none" 
	d="
M435.386169,164.053833 
	C435.133514,163.098679 435.110901,162.384079 435.012604,161.315979 
	C437.887299,158.056274 441.019592,155.308884 443.735687,152.198120 
	C446.331177,149.225586 448.264465,149.294235 451.028534,152.094437 
	C462.783020,164.002502 474.713928,175.736389 486.856476,187.729309 
	C486.670715,189.817123 486.824493,192.314575 485.651520,193.508011 
	C474.365021,204.991318 462.910187,216.311996 451.332581,227.502335 
	C450.027374,228.763916 447.667908,228.934769 445.368530,229.553543 
	C444.939728,229.495682 444.647308,229.388397 444.537048,229.042130 
	C443.873810,228.323410 443.320801,227.950958 442.767822,227.578522 
	C441.836029,226.614990 440.904236,225.651443 439.759460,224.166412 
	C438.942108,223.303970 438.337708,222.963013 437.733307,222.622055 
	C437.733307,222.622055 437.636261,222.390671 437.570374,222.031891 
	C436.912079,221.364380 436.319733,221.055649 435.727356,220.746902 
	C435.727356,220.746902 435.570587,220.421692 435.537354,220.244339 
	C436.244720,218.511154 436.643036,216.621597 437.781616,215.453735 
	C445.082947,207.964417 452.400116,200.477020 460.030609,193.328979 
	C463.002686,190.544800 462.185272,189.045990 459.119476,187.356720 
	C451.074493,179.719452 443.345367,172.006912 435.386169,164.053833 
z"/>
<path fill="#080808" opacity="1.000000" stroke="none" 
	d="
M500.892639,211.436111 
	C498.707153,211.857712 496.555267,212.069534 494.405640,212.048706 
	C483.901367,211.946976 486.729279,211.290329 481.828735,221.397385 
	C481.570831,221.929337 481.246063,222.428864 479.875336,222.912399 
	C479.688507,221.627319 479.351746,220.342804 479.346832,219.057007 
	C479.337280,216.568115 480.035431,213.964615 479.520355,211.609818 
	C477.711914,203.341400 482.161072,198.194687 487.977478,193.711777 
	C489.154327,192.804718 490.909882,192.312027 492.425629,192.245819 
	C496.573303,192.064606 500.735413,192.212662 505.326599,192.352509 
	C504.992065,193.289139 504.176849,194.065720 503.465057,194.927719 
	C502.590485,195.986893 501.802277,197.117386 500.620636,198.605560 
	C495.072662,200.839417 492.506683,205.299072 488.285095,209.853851 
	C493.512817,209.853851 497.289917,209.853851 501.067017,209.853851 
	C501.020447,210.275589 500.973846,210.697327 500.892639,211.436111 
z"/>
<path fill="#2F2F2F" opacity="1.000000" stroke="none" 
	d="
M501.056274,209.410553 
	C497.289917,209.853851 493.512817,209.853851 488.285095,209.853851 
	C492.506683,205.299072 495.072662,200.839417 500.628540,198.990753 
	C501.010223,202.314026 501.027863,205.640656 501.056274,209.410553 
z"/>
<path fill="#838383" opacity="1.000000" stroke="none" 
	d="
M442.801178,227.829651 
	C443.320801,227.950958 443.873810,228.323410 444.393219,228.982407 
	C443.851288,228.872894 443.342896,228.476852 442.801178,227.829651 
z"/>
<path fill="#838383" opacity="1.000000" stroke="none" 
	d="
M437.769165,222.881958 
	C438.337708,222.963013 438.942108,223.303970 439.519775,223.931107 
	C438.930359,223.858810 438.367706,223.500336 437.769165,222.881958 
z"/>
<path fill="#838383" opacity="1.000000" stroke="none" 
	d="
M435.780518,220.987167 
	C436.319733,221.055649 436.912079,221.364380 437.467041,221.960724 
	C436.897675,221.908035 436.365692,221.567734 435.780518,220.987167 
z"/>
</svg>